<?xml version="1.0" encoding="UTF-8"?>
<svg id="Layer_1" xmlns="http://www.w3.org/2000/svg" version="1.1" viewBox="0 0 1080 1080">
  <!-- Generator: Adobe Illustrator 29.6.1, SVG Export Plug-In . SVG Version: 2.1.1 Build 9)  -->
  <defs>
    <style>
      .st0 {
        fill: #fe6519;
      }
    </style>
  </defs>
  <g>
    <path d="M256.44,488.77c-8.97,0-16.48,2.91-22.54,8.74s-9.08,14.35-9.08,25.56,2.91,19.43,8.75,25.11c5.83,5.68,13.38,8.52,22.65,8.52,5.53,0,10.2-.71,14.01-2.13,3.81-1.42,7.14-2.95,9.98-4.6,2.24,1.35,4,2.95,5.27,4.82,1.27,1.87,1.91,4.15,1.91,6.84,0,5.08-3.07,9.23-9.19,12.44-6.13,3.21-14.2,4.82-24.22,4.82-11.36,0-21.34-2.06-29.94-6.17-8.6-4.11-15.32-10.35-20.18-18.72-4.86-8.37-7.29-18.69-7.29-30.94s2.58-23.24,7.74-31.62c5.16-8.37,12.03-14.61,20.63-18.72,8.59-4.11,18.05-6.17,28.37-6.17s17.79,1.72,23.77,5.16c5.98,3.44,8.97,7.7,8.97,12.78,0,2.24-.6,4.34-1.79,6.28-1.2,1.94-2.62,3.51-4.26,4.71-2.99-1.79-6.36-3.36-10.09-4.71-3.74-1.35-8.22-2.02-13.45-2.02Z"/>
    <path d="M326.43,495.05v30.72h-27.58v-32.96c0-3.73.9-6.91,2.69-9.53,1.79-2.61,4.33-5.05,7.62-7.29,4.48-2.69,10.16-4.93,17.04-6.73,6.87-1.79,14.27-2.69,22.2-2.69,14.05,0,21.08,4.34,21.08,13.01,0,2.1-.3,4-.9,5.72-.6,1.72-1.35,3.25-2.24,4.6-1.5-.3-3.36-.56-5.61-.78-2.24-.22-4.64-.34-7.18-.34-5.38,0-10.43.56-15.14,1.68-4.71,1.12-8.71,2.66-12,4.6ZM298.85,516.58l27.58,1.34v57.4c-1.2.45-2.91.86-5.16,1.23-2.24.37-4.71.56-7.4.56-5.08,0-8.86-.94-11.32-2.8-2.47-1.87-3.7-5.19-3.7-9.98v-47.76Z"/>
    <path d="M417.47,579.14c-14.95,0-26.68-2.88-35.2-8.63-8.52-5.75-12.78-14.31-12.78-25.68,0-10.01,3.17-17.68,9.53-22.98,6.35-5.3,15.58-8.56,27.69-9.75l30.5-3.14v-4.04c0-5.98-2.06-10.31-6.17-13.01-4.11-2.69-9.9-4.04-17.38-4.04-5.83,0-11.51.75-17.04,2.24-5.53,1.5-10.47,3.29-14.8,5.38-1.5-1.2-2.84-2.84-4.04-4.93-1.2-2.09-1.79-4.26-1.79-6.5,0-5.38,2.99-9.34,8.97-11.88,4.18-1.94,9.08-3.36,14.69-4.26,5.61-.9,11.17-1.35,16.71-1.35,14.65,0,26.31,3.1,34.98,9.31,8.67,6.2,13.01,15.96,13.01,29.26v51.57c0,3.59-.86,6.43-2.58,8.52-1.72,2.1-3.92,3.96-6.62,5.61-4.19,2.39-9.49,4.37-15.92,5.94-6.43,1.57-13.68,2.35-21.75,2.35ZM417.47,558.06c4.48,0,8.52-.45,12.11-1.35,3.59-.9,6.2-1.87,7.85-2.91v-25.56l-22.2,2.24c-6.13.45-10.8,1.76-14.01,3.92-3.22,2.17-4.82,5.35-4.82,9.53s1.72,7.77,5.16,10.31c3.44,2.54,8.75,3.81,15.92,3.81Z"/>
    <path d="M509.85,465.9v28.93h-26.46v-30.05c0-9.42,1.91-17.08,5.72-22.98,3.81-5.9,9.12-10.24,15.92-13.01,6.8-2.76,14.54-4.15,23.21-4.15,9.72,0,17.12,1.27,22.2,3.81,5.08,2.54,7.62,6.36,7.62,11.44,0,2.24-.49,4.3-1.46,6.17-.97,1.87-2.13,3.4-3.48,4.6-2.84-1.19-6.02-2.17-9.53-2.91-3.51-.75-7.21-1.12-11.1-1.12-7.93,0-13.68,1.5-17.27,4.48-3.59,2.99-5.38,7.93-5.38,14.8Z"/>
    <path d="M483.4,486.98h27.58v88.35c-1.2.45-2.91.86-5.16,1.23-2.24.37-4.71.56-7.4.56-5.08,0-8.86-.94-11.32-2.8-2.47-1.87-3.7-5.19-3.7-9.98v-77.36Z"/>
    <path d="M471.06,498.19v-21.53h60c.6,1.05,1.23,2.51,1.91,4.37.67,1.87,1.01,4,1.01,6.39,0,3.74-.86,6.47-2.58,8.18-1.72,1.72-4.15,2.58-7.29,2.58h-53.05Z"/>
    <path d="M549.61,498.19v-21.53h54.73c.6,1.05,1.23,2.51,1.91,4.37.67,1.87,1.01,4,1.01,6.39,0,3.74-.86,6.47-2.58,8.18-1.72,1.72-4.15,2.58-7.29,2.58h-47.78Z"/>
    <path d="M591.7,522.63h-27.58v-80.72c1.19-.45,2.95-.9,5.27-1.35,2.32-.45,4.74-.67,7.29-.67,5.23,0,9.04.93,11.44,2.8,2.39,1.87,3.59,5.2,3.59,9.98v69.96Z"/>
    <path d="M564.12,516.58h27.58v26.46c0,4.93,1.46,8.45,4.37,10.54,2.91,2.1,7.06,3.14,12.44,3.14,2.39,0,4.97-.3,7.74-.9,2.76-.6,5.12-1.34,7.06-2.24,1.04,1.2,2.02,2.62,2.91,4.26.9,1.65,1.35,3.66,1.35,6.05,0,4.34-2.06,7.93-6.17,10.76-4.11,2.84-10.5,4.26-19.17,4.26-11.81,0-21.12-2.66-27.92-7.96-6.8-5.3-10.2-13.94-10.2-25.9v-28.48Z"/>
  </g>
  <g>
    <path class="st0" d="M817.29,552.45v-70.41h27.58v73.32c0,3.29-.71,6.02-2.13,8.18-1.42,2.17-3.7,4.23-6.84,6.17-3.59,2.39-8.49,4.52-14.69,6.39-6.2,1.87-13.27,2.8-21.19,2.8-11.81,0-22.09-1.98-30.83-5.94-8.74-3.96-15.51-10.09-20.29-18.39-4.79-8.3-7.18-18.8-7.18-31.5s2.43-23.69,7.29-32.07c4.86-8.37,11.4-14.54,19.62-18.5,8.22-3.96,17.34-5.94,27.36-5.94,5.53,0,10.57.67,15.14,2.02,4.56,1.35,8.26,2.92,11.1,4.71v23.54c-2.39-2.24-5.53-4.18-9.42-5.83-3.89-1.64-8.37-2.47-13.45-2.47-5.53,0-10.54,1.16-15.02,3.48-4.49,2.32-8,6.05-10.54,11.21-2.54,5.16-3.81,11.85-3.81,20.07,0,11.66,2.69,20.18,8.07,25.56,5.38,5.38,12.63,8.07,21.75,8.07,4.04,0,7.47-.45,10.31-1.35,2.84-.9,5.23-1.94,7.18-3.14ZM844.87,487.65l-27.58.22v-57.85c1.04-.3,2.73-.67,5.05-1.12,2.32-.45,4.74-.67,7.29-.67,5.38,0,9.27.94,11.66,2.8,2.39,1.87,3.59,5.2,3.59,9.98v46.64Z"/>
    <path class="st0" d="M854.29,559.63c0-4.09,1.28-7.54,3.84-10.36,2.56-2.81,6.07-4.22,10.55-4.22s7.99,1.41,10.55,4.22c2.56,2.81,3.84,6.27,3.84,10.36s-1.28,7.55-3.84,10.36c-2.56,2.81-6.07,4.22-10.55,4.22s-7.99-1.41-10.55-4.22c-2.56-2.81-3.84-6.26-3.84-10.36Z"/>
    <path class="st0" d="M733.82,523.08c0-1.33.03-2.65.08-3.95-1.36,1.27-2.48,2.56-3.3,3.74-2.2,3.18-3.87,7.64-7.37,12.14-3.5,4.5-7.88,8.45-13.15,11.86-7.78,5.05-15.43,7.33-22.95,6.87-6.01-.38-11.64-2.93-16.88-7.67l47.57-41.64c3.02-2.49,4.88-5.17,5.6-8.04.72-2.87-.05-6.07-2.34-9.58-4.96-7.65-11.14-13.26-18.54-16.83-7.39-3.57-15.28-5.01-23.64-4.31-8.36.7-16.69,3.74-24.97,9.11-5.89,3.83-10.91,8.46-15.03,13.9-4.14,5.44-7,11.4-8.59,17.86-1.6,6.47-1.71,13.37-.36,20.68,1.36,7.32,4.52,14.8,9.48,22.45,6.92,10.66,14.79,18.2,23.63,22.62,8.83,4.43,18.15,6.01,27.93,4.74,9.78-1.26,19.5-5.03,29.16-11.3,6.26-4.07,11.44-8.32,15.52-12.73.89-.97,1.71-1.92,2.47-2.87-2.89-7.82-4.34-16.87-4.34-27.03ZM658.35,530.85c-4.41-7.67-5.98-14.85-4.71-21.54,1.38-7.22,5.26-12.9,11.66-17.05,6.27-4.07,12.17-5.4,17.71-4.01,5.54,1.4,10.04,4.36,13.51,8.88l-38.17,33.72Z"/>
  </g>
  <g>
    <path d="M569.28,623.4h-5.16v-19.56c.21-.08.53-.18.98-.28.44-.1.91-.16,1.42-.16.92,0,1.61.18,2.08.53.46.36.69.95.69,1.79v17.67ZM564.12,619.62h5.16v21.83l-2.39.5c-.8,0-1.46-.26-1.98-.79-.52-.52-.79-1.18-.79-1.98v-19.56ZM566.89,641.95v-4.4h20.44c.21.17.38.44.5.82s.19.8.19,1.26c0,.71-.19,1.28-.57,1.7s-.88.63-1.51.63h-19.06Z"/>
    <path d="M592.8,630.63l-.25-3.96,19-2.58c-.17-2.3-.97-4.2-2.39-5.69-1.43-1.49-3.4-2.23-5.91-2.23s-4.75.93-6.45,2.8c-1.7,1.87-2.55,4.54-2.55,8.02v1.38c.29,3.36,1.39,5.9,3.3,7.64,1.91,1.74,4.52,2.61,7.83,2.61,1.76,0,3.35-.29,4.78-.88,1.43-.59,2.56-1.22,3.4-1.89.46.29.83.64,1.1,1.04.27.4.41.85.41,1.35,0,.8-.45,1.54-1.35,2.23-.9.69-2.1,1.25-3.59,1.67-1.49.42-3.16.63-5,.63-3.23,0-6.03-.59-8.4-1.76-2.37-1.17-4.19-2.93-5.47-5.25-1.28-2.33-1.92-5.17-1.92-8.52,0-2.39.35-4.52,1.04-6.38.69-1.87,1.66-3.45,2.89-4.75,1.24-1.3,2.71-2.3,4.43-2.99,1.72-.69,3.59-1.04,5.6-1.04,2.56,0,4.81.55,6.76,1.64,1.95,1.09,3.48,2.61,4.59,4.56,1.11,1.95,1.67,4.18,1.67,6.7,0,.92-.21,1.58-.63,1.98-.42.4-1.01.64-1.76.72l-21.14,2.96Z"/>
    <path d="M630.86,642.83c-3.94,0-6.99-.78-9.15-2.33-2.16-1.55-3.24-3.79-3.24-6.73,0-2.72.91-4.81,2.74-6.26s4.35-2.32,7.58-2.61l8.93-.88v-1.76c0-2.1-.63-3.63-1.89-4.59-1.26-.96-2.96-1.45-5.1-1.45-1.72,0-3.37.25-4.94.75-1.57.5-2.97,1.07-4.18,1.7-.34-.29-.64-.64-.91-1.04-.27-.4-.41-.81-.41-1.23,0-1.09.61-1.93,1.82-2.52,1.13-.59,2.44-1.04,3.93-1.35,1.49-.31,3.07-.47,4.75-.47,3.65,0,6.54.82,8.68,2.45,2.14,1.64,3.21,4.22,3.21,7.74v14.91c0,.92-.18,1.63-.53,2.11-.36.48-.89.93-1.6,1.35-1.01.55-2.35,1.05-4.03,1.51-1.68.46-3.57.69-5.66.69ZM630.86,638.68c1.76,0,3.22-.18,4.37-.54,1.15-.35,1.98-.7,2.48-1.04v-9.12l-7.8.82c-2.18.17-3.8.65-4.84,1.45-1.05.8-1.57,1.95-1.57,3.46s.62,2.77,1.86,3.65c1.24.88,3.07,1.32,5.5,1.32Z"/>
    <path d="M653.75,618.3v9.94h-5.03v-9.56c0-.96.18-1.73.53-2.3.36-.57.95-1.12,1.79-1.67,1.09-.71,2.58-1.33,4.47-1.86,1.89-.52,3.98-.79,6.29-.79,3.35,0,5.03.84,5.03,2.52,0,.42-.06.81-.19,1.16-.13.36-.29.66-.5.91-.42-.08-.97-.17-1.64-.25-.67-.08-1.34-.13-2.01-.13-1.93,0-3.63.2-5.1.6-1.47.4-2.68.87-3.65,1.42ZM648.72,625.35l5.03.75v15.72c-.21.08-.52.18-.94.28-.42.1-.88.16-1.38.16-.88,0-1.55-.18-2.01-.53s-.69-.93-.69-1.73v-14.66Z"/>
    <path d="M694.45,622.77v6.42h-5.03v-6.16c0-2.35-.66-4.07-1.98-5.16-1.32-1.09-3.09-1.63-5.31-1.63-1.68,0-3.17.21-4.47.63-1.3.42-2.41.9-3.33,1.45v10.88h-5.03v-10.63c0-.88.18-1.6.53-2.17.36-.57.98-1.12,1.86-1.67,1.09-.63,2.54-1.23,4.34-1.79,1.8-.57,3.84-.85,6.1-.85,3.81,0,6.82.87,9.03,2.61,2.2,1.74,3.3,4.43,3.3,8.08ZM669.29,625.72h5.03v16.1c-.21.08-.52.18-.94.28-.42.1-.88.16-1.38.16-.88,0-1.55-.18-2.01-.53s-.69-.93-.69-1.73v-14.28ZM689.42,625.72h5.03v16.1c-.21.08-.53.18-.98.28-.44.1-.89.16-1.35.16-.92,0-1.6-.18-2.04-.53-.44-.36-.66-.93-.66-1.73v-14.28Z"/>
    <path d="M700.3,603.71c0-.88.31-1.62.94-2.23.63-.61,1.4-.91,2.33-.91s1.74.3,2.33.91c.59.61.88,1.35.88,2.23s-.29,1.63-.88,2.23c-.59.61-1.36.91-2.33.91s-1.7-.3-2.33-.91c-.63-.61-.94-1.35-.94-2.23ZM706.09,627.8h-5.03v-14.78c.21-.08.53-.18.98-.28.44-.1.91-.16,1.42-.16.88,0,1.54.18,1.98.53.44.36.66.95.66,1.79v12.9ZM701.05,625.35h5.03v16.48c-.21.08-.53.18-.94.28-.42.1-.88.16-1.38.16-.88,0-1.55-.18-2.01-.53-.46-.36-.69-.93-.69-1.73v-14.66Z"/>
    <path d="M737.91,622.77v6.42h-5.03v-6.16c0-2.35-.66-4.07-1.98-5.16-1.32-1.09-3.09-1.63-5.31-1.63-1.68,0-3.17.21-4.47.63-1.3.42-2.41.9-3.33,1.45v10.88h-5.03v-10.63c0-.88.18-1.6.53-2.17.36-.57.98-1.12,1.86-1.67,1.09-.63,2.54-1.23,4.34-1.79,1.8-.57,3.84-.85,6.1-.85,3.81,0,6.82.87,9.03,2.61,2.2,1.74,3.3,4.43,3.3,8.08ZM712.75,625.72h5.03v16.1c-.21.08-.52.18-.94.28-.42.1-.88.16-1.38.16-.88,0-1.55-.18-2.01-.53s-.69-.93-.69-1.73v-14.28ZM732.88,625.72h5.03v16.1c-.21.08-.53.18-.98.28-.44.1-.89.16-1.35.16-.92,0-1.6-.18-2.04-.53-.44-.36-.66-.93-.66-1.73v-14.28Z"/>
    <path d="M756.28,641.07c-2.43,0-4.68-.47-6.73-1.42-2.06-.94-3.71-2.48-4.97-4.62s-1.89-4.97-1.89-8.49c0-3.19.62-5.85,1.86-7.99,1.24-2.14,2.95-3.75,5.13-4.84,2.18-1.09,4.68-1.64,7.49-1.64,1.93,0,3.7.24,5.32.72,1.61.48,2.97,1.08,4.06,1.79.63.42,1.14.89,1.54,1.42.4.53.6,1.16.6,1.92v19.44h-5.03v-19.37c-.71-.46-1.6-.87-2.67-1.23-1.07-.36-2.34-.53-3.81-.53-2.81,0-5.07.86-6.79,2.58-1.72,1.72-2.58,4.28-2.58,7.67,0,3.77.87,6.46,2.61,8.05,1.74,1.59,3.89,2.39,6.45,2.39,1.84,0,3.33-.31,4.47-.94,1.13-.63,2.03-1.32,2.7-2.08l.25,4.47c-.63.67-1.63,1.29-2.99,1.86-1.36.57-3.03.85-5,.85ZM763.64,642.89v-6.6h5.03v6.92c0,2.77-.6,4.99-1.79,6.67-1.2,1.68-2.83,2.89-4.91,3.65-2.08.75-4.41,1.13-7.01,1.13-2.1,0-3.9-.23-5.41-.69-1.51-.46-2.54-.84-3.08-1.13-1.26-.71-1.89-1.61-1.89-2.7,0-.59.14-1.08.41-1.48.27-.4.62-.7,1.04-.91.88.67,2.13,1.29,3.74,1.86,1.61.57,3.34.85,5.19.85,2.81,0,4.96-.61,6.45-1.82,1.49-1.22,2.23-3.12,2.23-5.73Z"/>
    <path d="M790.31,623.4h-5.16v-19.56c.21-.08.53-.18.98-.28.44-.1.91-.16,1.42-.16.92,0,1.61.18,2.08.53.46.36.69.95.69,1.79v17.67ZM785.15,619.18h5.16v22.64c-.25.08-.59.18-1.01.28-.42.1-.88.16-1.38.16-.92,0-1.61-.19-2.08-.57s-.69-.96-.69-1.76v-20.76ZM812.64,624.72h-24.41v-4.28h24.41v4.28ZM815.09,623.4h-5.16v-19.56c.21-.08.53-.18.98-.28.44-.1.91-.16,1.42-.16.92,0,1.61.18,2.08.53.46.36.69.95.69,1.79v17.67ZM809.94,619.18h5.16v22.64c-.25.08-.59.18-1.01.28-.42.1-.88.16-1.38.16-.92,0-1.61-.19-2.08-.57s-.69-.96-.69-1.76v-20.76Z"/>
    <path d="M827.3,628.87h-5.03v-15.85c.21-.08.53-.18.98-.28.44-.1.91-.16,1.42-.16.88,0,1.54.18,1.98.53.44.36.66.95.66,1.79v13.96ZM822.26,631.32v-5.72h5.03v5.47c0,2.68.71,4.61,2.14,5.79,1.43,1.17,3.4,1.76,5.91,1.76,1.68,0,3.1-.18,4.28-.53,1.17-.36,2.1-.72,2.77-1.1v-11.39h5.03v11.2c0,.88-.12,1.58-.35,2.11-.23.53-.79,1.04-1.67,1.54-.92.55-2.24,1.07-3.96,1.57-1.72.5-3.77.75-6.16.75-2.77,0-5.13-.41-7.08-1.23-1.95-.82-3.43-2.08-4.43-3.77-1.01-1.7-1.51-3.85-1.51-6.45ZM847.43,628.87h-5.03v-15.85c.21-.08.53-.18.97-.28.44-.1.89-.16,1.35-.16.92,0,1.6.18,2.04.53.44.36.66.95.66,1.79v13.96Z"/>
    <path d="M858.87,616.73h-5.03v-15.54c.21-.08.53-.18.98-.28s.91-.16,1.42-.16c.88,0,1.54.18,1.98.54.44.36.66.93.66,1.73v13.71ZM866.67,612.07c2.6,0,4.94.56,7.01,1.67,2.08,1.11,3.71,2.8,4.91,5.06,1.2,2.26,1.79,5.14,1.79,8.62s-.62,6.42-1.86,8.68c-1.24,2.26-2.95,3.94-5.13,5.03-2.18,1.09-4.72,1.64-7.61,1.64-2.06,0-3.91-.25-5.57-.75-1.66-.5-3.01-1.05-4.06-1.64-.88-.59-1.49-1.13-1.82-1.63-.34-.5-.5-1.2-.5-2.08v-20.95h5.03v20.95c.63.46,1.55.9,2.77,1.32,1.22.42,2.6.63,4.15.63,2.85,0,5.15-.9,6.89-2.7,1.74-1.8,2.61-4.63,2.61-8.49s-.88-6.74-2.64-8.52c-1.76-1.78-4.01-2.67-6.73-2.67-1.68,0-3.17.32-4.47.97-1.3.65-2.37,1.4-3.21,2.23l-.94-4.09c.92-.71,2.16-1.44,3.71-2.17,1.55-.73,3.44-1.1,5.66-1.1Z"/>
  </g>
</svg>