<?xml version="1.0" encoding="UTF-8" standalone="no" ?>
<!DOCTYPE svg PUBLIC "-//W3C//DTD SVG 1.1//EN" "http://www.w3.org/Graphics/SVG/1.1/DTD/svg11.dtd">
<svg xmlns="http://www.w3.org/2000/svg" xmlns:xlink="http://www.w3.org/1999/xlink" version="1.1" width="800" height="280" viewBox="1800 630 800 280" xml:space="preserve">
<desc>Created with Fabric.js 5.2.4</desc>
<defs>
</defs>
<g transform="matrix(1 0 0 1 400 140)" id="4dbc78f3-2391-4014-ab26-99f72f4edd9b"  >
<rect style="stroke: none; stroke-width: 1; stroke-dasharray: none; stroke-linecap: butt; stroke-dashoffset: 0; stroke-linejoin: miter; stroke-miterlimit: 4; fill: rgb(255,255,255); fill-rule: nonzero; opacity: 1; visibility: hidden;" vector-effect="non-scaling-stroke"  x="-400" y="-140" rx="0" ry="0" width="800" height="280" />
</g>
<g transform="matrix(Infinity NaN NaN Infinity 0 0)" id="a1edf6ad-b0c8-4db6-9bee-5a36e8017b74"  >
</g>
<g transform="matrix(0.24 0 0 0.24 2189.4 765.01)"  >
<g style="" vector-effect="non-scaling-stroke"   >
		<g transform="matrix(1 0 0 1 -297.84 -16.93)"  >
<path style="stroke: none; stroke-width: 1; stroke-dasharray: none; stroke-linecap: butt; stroke-dashoffset: 0; stroke-linejoin: miter; stroke-miterlimit: 4; fill: rgb(0,0,0); fill-rule: nonzero; opacity: 1;" vector-effect="non-scaling-stroke"  transform=" translate(-241.98, -522.72)" d="M 256.44 488.77 C 247.47 488.77 239.96 491.68 233.9 497.51 C 227.84 503.34 224.82 511.86 224.82 523.0699999999999 C 224.82 534.2799999999999 227.73 542.4999999999999 233.57 548.18 C 239.4 553.8599999999999 246.95 556.6999999999999 256.21999999999997 556.6999999999999 C 261.74999999999994 556.6999999999999 266.41999999999996 555.9899999999999 270.22999999999996 554.5699999999999 C 274.03999999999996 553.15 277.36999999999995 551.6199999999999 280.21 549.9699999999999 C 282.45 551.3199999999999 284.21 552.92 285.47999999999996 554.79 C 286.74999999999994 556.66 287.39 558.9399999999999 287.39 561.63 C 287.39 566.71 284.32 570.86 278.2 574.07 C 272.07 577.2800000000001 264 578.8900000000001 253.98 578.8900000000001 C 242.62 578.8900000000001 232.64 576.8300000000002 224.04 572.7200000000001 C 215.44 568.6100000000001 208.72 562.3700000000001 203.85999999999999 554.0000000000001 C 198.99999999999997 545.6300000000001 196.57 535.3100000000001 196.57 523.0600000000001 C 196.57 510.81000000000006 199.15 499.82000000000005 204.31 491.44000000000005 C 209.47 483.07000000000005 216.34 476.83000000000004 224.94 472.72 C 233.53 468.61 242.99 466.55 253.31 466.55 C 263.63 466.55 271.1 468.27000000000004 277.08 471.71000000000004 C 283.06 475.15000000000003 286.05 479.41 286.05 484.49 C 286.05 486.73 285.45 488.83 284.26 490.77 C 283.06 492.71 281.64 494.28 280 495.47999999999996 C 277.01 493.68999999999994 273.64 492.11999999999995 269.91 490.77 C 266.17 489.41999999999996 261.69 488.75 256.46000000000004 488.75 Z" stroke-linecap="round" />
</g>
		<g transform="matrix(1 0 0 1 -205.65 -17.81)"  >
<path style="stroke: none; stroke-width: 1; stroke-dasharray: none; stroke-linecap: butt; stroke-dashoffset: 0; stroke-linejoin: miter; stroke-miterlimit: 4; fill: rgb(0,0,0); fill-rule: nonzero; opacity: 1;" vector-effect="non-scaling-stroke"  transform=" translate(-334.17, -521.84)" d="M 326.43 495.05 L 326.43 525.77 L 298.85 525.77 L 298.85 492.81 C 298.85 489.08 299.75 485.9 301.54 483.28000000000003 C 303.33000000000004 480.67 305.87 478.23 309.16 475.99 C 313.64000000000004 473.3 319.32000000000005 471.06 326.20000000000005 469.26 C 333.07000000000005 467.46999999999997 340.47 466.57 348.40000000000003 466.57 C 362.45000000000005 466.57 369.48 470.90999999999997 369.48 479.58 C 369.48 481.68 369.18 483.58 368.58000000000004 485.3 C 367.98 487.02000000000004 367.23 488.55 366.34000000000003 489.90000000000003 C 364.84000000000003 489.6 362.98 489.34000000000003 360.73 489.12000000000006 C 358.49 488.90000000000003 356.09000000000003 488.7800000000001 353.55 488.7800000000001 C 348.17 488.7800000000001 343.12 489.3400000000001 338.41 490.4600000000001 C 333.70000000000005 491.5800000000001 329.70000000000005 493.1200000000001 326.41 495.0600000000001 Z M 298.85 516.58 L 326.43 517.9200000000001 L 326.43 575.32 C 325.23 575.7700000000001 323.52 576.1800000000001 321.27 576.5500000000001 C 319.03 576.9200000000001 316.56 577.11 313.87 577.11 C 308.79 577.11 305.01 576.17 302.55 574.3100000000001 C 300.08 572.44 298.85 569.12 298.85 564.33 L 298.85 516.57 Z" stroke-linecap="round" />
</g>
		<g transform="matrix(1 0 0 1 -122.9 -16.79)"  >
<path style="stroke: none; stroke-width: 1; stroke-dasharray: none; stroke-linecap: butt; stroke-dashoffset: 0; stroke-linejoin: miter; stroke-miterlimit: 4; fill: rgb(0,0,0); fill-rule: nonzero; opacity: 1;" vector-effect="non-scaling-stroke"  transform=" translate(-416.92, -522.86)" d="M 417.47 579.14 C 402.52000000000004 579.14 390.79 576.26 382.27000000000004 570.51 C 373.75000000000006 564.76 369.49000000000007 556.2 369.49000000000007 544.83 C 369.49000000000007 534.82 372.6600000000001 527.1500000000001 379.02000000000004 521.85 C 385.37000000000006 516.5500000000001 394.6 513.2900000000001 406.71000000000004 512.1 L 437.21000000000004 508.96000000000004 L 437.21000000000004 504.92 C 437.21000000000004 498.94 435.15000000000003 494.61 431.04 491.91 C 426.93 489.22 421.14000000000004 487.87 413.66 487.87 C 407.83000000000004 487.87 402.15000000000003 488.62 396.62 490.11 C 391.09000000000003 491.61 386.15 493.40000000000003 381.82 495.49 C 380.32 494.29 378.98 492.65000000000003 377.78 490.56 C 376.58 488.47 375.98999999999995 486.3 375.98999999999995 484.06 C 375.98999999999995 478.68 378.97999999999996 474.72 384.96 472.18 C 389.14 470.24 394.03999999999996 468.82 399.65 467.92 C 405.26 467.02000000000004 410.82 466.57 416.35999999999996 466.57 C 431.00999999999993 466.57 442.66999999999996 469.67 451.34 475.88 C 460.01 482.08 464.34999999999997 491.84 464.34999999999997 505.14 L 464.34999999999997 556.71 C 464.34999999999997 560.3000000000001 463.48999999999995 563.14 461.77 565.23 C 460.04999999999995 567.33 457.84999999999997 569.19 455.15 570.84 C 450.96 573.23 445.65999999999997 575.21 439.22999999999996 576.7800000000001 C 432.79999999999995 578.3500000000001 425.54999999999995 579.1300000000001 417.47999999999996 579.1300000000001 Z M 417.47 558.06 C 421.95000000000005 558.06 425.99 557.6099999999999 429.58000000000004 556.7099999999999 C 433.17 555.81 435.78000000000003 554.8399999999999 437.43000000000006 553.8 L 437.43000000000006 528.24 L 415.2300000000001 530.48 C 409.1000000000001 530.9300000000001 404.43000000000006 532.24 401.2200000000001 534.4 C 398.00000000000006 536.5699999999999 396.4000000000001 539.75 396.4000000000001 543.93 C 396.4000000000001 548.1099999999999 398.1200000000001 551.6999999999999 401.5600000000001 554.2399999999999 C 405.0000000000001 556.7799999999999 410.3100000000001 558.0499999999998 417.48000000000013 558.0499999999998 Z" stroke-linecap="round" />
</g>
		<g transform="matrix(1 0 0 1 -19.09 -79.91)"  >
<path style="stroke: none; stroke-width: 1; stroke-dasharray: none; stroke-linecap: butt; stroke-dashoffset: 0; stroke-linejoin: miter; stroke-miterlimit: 4; fill: rgb(0,0,0); fill-rule: nonzero; opacity: 1;" vector-effect="non-scaling-stroke"  transform=" translate(-520.73, -459.74)" d="M 509.85 465.9 L 509.85 494.83 L 483.39000000000004 494.83 L 483.39000000000004 464.78 C 483.39000000000004 455.35999999999996 485.30000000000007 447.7 489.11000000000007 441.79999999999995 C 492.9200000000001 435.9 498.2300000000001 431.55999999999995 505.0300000000001 428.78999999999996 C 511.8300000000001 426.03 519.57 424.64 528.2400000000001 424.64 C 537.9600000000002 424.64 545.3600000000001 425.90999999999997 550.4400000000002 428.45 C 555.5200000000002 430.99 558.0600000000002 434.81 558.0600000000002 439.89 C 558.0600000000002 442.13 557.5700000000002 444.19 556.6000000000001 446.06 C 555.6300000000001 447.93 554.4700000000001 449.46 553.1200000000001 450.66 C 550.2800000000001 449.47 547.1000000000001 448.49 543.5900000000001 447.75 C 540.0800000000002 447 536.3800000000001 446.63 532.4900000000001 446.63 C 524.5600000000002 446.63 518.8100000000002 448.13 515.2200000000001 451.11 C 511.63000000000017 454.1 509.84000000000015 459.04 509.84000000000015 465.91 Z" stroke-linecap="round" />
</g>
		<g transform="matrix(1 0 0 1 -42.63 -7.6)"  >
<path style="stroke: none; stroke-width: 1; stroke-dasharray: none; stroke-linecap: butt; stroke-dashoffset: 0; stroke-linejoin: miter; stroke-miterlimit: 4; fill: rgb(0,0,0); fill-rule: nonzero; opacity: 1;" vector-effect="non-scaling-stroke"  transform=" translate(-497.19, -532.05)" d="M 483.4 486.98 L 510.97999999999996 486.98 L 510.97999999999996 575.33 C 509.78 575.7800000000001 508.06999999999994 576.19 505.81999999999994 576.5600000000001 C 503.5799999999999 576.9300000000001 501.10999999999996 577.12 498.41999999999996 577.12 C 493.34 577.12 489.55999999999995 576.18 487.09999999999997 574.32 C 484.62999999999994 572.45 483.4 569.13 483.4 564.34 L 483.4 486.98 Z" stroke-linecap="round" />
</g>
		<g transform="matrix(1 0 0 1 -37.3 -52.22)"  >
<path style="stroke: none; stroke-width: 1; stroke-dasharray: none; stroke-linecap: butt; stroke-dashoffset: 0; stroke-linejoin: miter; stroke-miterlimit: 4; fill: rgb(0,0,0); fill-rule: nonzero; opacity: 1;" vector-effect="non-scaling-stroke"  transform=" translate(-502.52, -487.42)" d="M 471.06 498.19 L 471.06 476.65999999999997 L 531.06 476.65999999999997 C 531.66 477.71 532.29 479.16999999999996 532.9699999999999 481.03 C 533.6399999999999 482.9 533.9799999999999 485.03 533.9799999999999 487.41999999999996 C 533.9799999999999 491.15999999999997 533.1199999999999 493.89 531.3999999999999 495.59999999999997 C 529.6799999999998 497.32 527.2499999999999 498.17999999999995 524.1099999999999 498.17999999999995 L 471.0599999999999 498.17999999999995 Z" stroke-linecap="round" />
</g>
		<g transform="matrix(1 0 0 1 38.61 -52.22)"  >
<path style="stroke: none; stroke-width: 1; stroke-dasharray: none; stroke-linecap: butt; stroke-dashoffset: 0; stroke-linejoin: miter; stroke-miterlimit: 4; fill: rgb(0,0,0); fill-rule: nonzero; opacity: 1;" vector-effect="non-scaling-stroke"  transform=" translate(-578.43, -487.42)" d="M 549.61 498.19 L 549.61 476.65999999999997 L 604.34 476.65999999999997 C 604.94 477.71 605.57 479.16999999999996 606.25 481.03 C 606.92 482.9 607.26 485.03 607.26 487.41999999999996 C 607.26 491.15999999999997 606.4 493.89 604.68 495.59999999999997 C 602.9599999999999 497.32 600.53 498.17999999999995 597.39 498.17999999999995 L 549.61 498.17999999999995 Z" stroke-linecap="round" />
</g>
		<g transform="matrix(1 0 0 1 38.09 -58.39)"  >
<path style="stroke: none; stroke-width: 1; stroke-dasharray: none; stroke-linecap: butt; stroke-dashoffset: 0; stroke-linejoin: miter; stroke-miterlimit: 4; fill: rgb(0,0,0); fill-rule: nonzero; opacity: 1;" vector-effect="non-scaling-stroke"  transform=" translate(-577.91, -481.26)" d="M 591.7 522.63 L 564.12 522.63 L 564.12 441.90999999999997 C 565.3100000000001 441.46 567.07 441.01 569.39 440.55999999999995 C 571.71 440.10999999999996 574.13 439.88999999999993 576.68 439.88999999999993 C 581.91 439.88999999999993 585.7199999999999 440.81999999999994 588.12 442.68999999999994 C 590.51 444.55999999999995 591.71 447.88999999999993 591.71 452.66999999999996 L 591.71 522.63 Z" stroke-linecap="round" />
</g>
		<g transform="matrix(1 0 0 1 56.02 8.09)"  >
<path style="stroke: none; stroke-width: 1; stroke-dasharray: none; stroke-linecap: butt; stroke-dashoffset: 0; stroke-linejoin: miter; stroke-miterlimit: 4; fill: rgb(0,0,0); fill-rule: nonzero; opacity: 1;" vector-effect="non-scaling-stroke"  transform=" translate(-595.84, -547.74)" d="M 564.12 516.58 L 591.7 516.58 L 591.7 543.0400000000001 C 591.7 547.97 593.1600000000001 551.4900000000001 596.07 553.58 C 598.98 555.6800000000001 603.13 556.72 608.5100000000001 556.72 C 610.9000000000001 556.72 613.4800000000001 556.4200000000001 616.2500000000001 555.82 C 619.0100000000001 555.22 621.3700000000001 554.48 623.3100000000001 553.58 C 624.35 554.7800000000001 625.33 556.2 626.22 557.84 C 627.12 559.49 627.57 561.5 627.57 563.89 C 627.57 568.23 625.5100000000001 571.8199999999999 621.4000000000001 574.65 C 617.2900000000001 577.49 610.9000000000001 578.91 602.2300000000001 578.91 C 590.4200000000002 578.91 581.1100000000001 576.25 574.3100000000002 570.9499999999999 C 567.5100000000002 565.65 564.1100000000001 557.0099999999999 564.1100000000001 545.05 L 564.1100000000001 516.5699999999999 Z" stroke-linecap="round" />
</g>
		<g transform="matrix(1 0 0 1 253.48 -36.08)"  >
<path style="stroke: none; stroke-width: 1; stroke-dasharray: none; stroke-linecap: butt; stroke-dashoffset: 0; stroke-linejoin: miter; stroke-miterlimit: 4; fill: rgb(254,101,25); fill-rule: nonzero; opacity: 1;" vector-effect="non-scaling-stroke"  transform=" translate(-793.3, -503.56)" d="M 817.29 552.45 L 817.29 482.0400000000001 L 844.87 482.0400000000001 L 844.87 555.3600000000001 C 844.87 558.6500000000001 844.16 561.3800000000001 842.74 563.5400000000001 C 841.32 565.71 839.04 567.7700000000001 835.9 569.71 C 832.31 572.1 827.41 574.23 821.2099999999999 576.1 C 815.0099999999999 577.97 807.9399999999999 578.9 800.0199999999999 578.9 C 788.2099999999999 578.9 777.9299999999998 576.92 769.1899999999998 572.9599999999999 C 760.4499999999998 568.9999999999999 753.6799999999998 562.8699999999999 748.8999999999999 554.5699999999999 C 744.1099999999999 546.27 741.7199999999999 535.77 741.7199999999999 523.0699999999999 C 741.7199999999999 510.3699999999999 744.1499999999999 499.37999999999994 749.0099999999999 490.99999999999994 C 753.8699999999999 482.62999999999994 760.4099999999999 476.4599999999999 768.6299999999999 472.49999999999994 C 776.8499999999999 468.53999999999996 785.9699999999999 466.55999999999995 795.9899999999999 466.55999999999995 C 801.5199999999999 466.55999999999995 806.56 467.22999999999996 811.1299999999999 468.5799999999999 C 815.6899999999998 469.92999999999995 819.3899999999999 471.49999999999994 822.2299999999999 473.2899999999999 L 822.2299999999999 496.8299999999999 C 819.8399999999999 494.5899999999999 816.6999999999999 492.6499999999999 812.81 490.99999999999994 C 808.92 489.35999999999996 804.4399999999999 488.5299999999999 799.3599999999999 488.5299999999999 C 793.8299999999999 488.5299999999999 788.8199999999999 489.68999999999994 784.3399999999999 492.00999999999993 C 779.8499999999999 494.3299999999999 776.3399999999999 498.05999999999995 773.8 503.2199999999999 C 771.26 508.37999999999994 769.99 515.0699999999999 769.99 523.29 C 769.99 534.9499999999999 772.6800000000001 543.4699999999999 778.0600000000001 548.8499999999999 C 783.44 554.2299999999999 790.69 556.92 799.8100000000001 556.92 C 803.85 556.92 807.2800000000001 556.4699999999999 810.12 555.5699999999999 C 812.96 554.67 815.35 553.6299999999999 817.3 552.43 Z M 844.87 487.65 L 817.29 487.87 L 817.29 430.02 C 818.3299999999999 429.71999999999997 820.02 429.34999999999997 822.3399999999999 428.9 C 824.66 428.45 827.0799999999999 428.22999999999996 829.6299999999999 428.22999999999996 C 835.0099999999999 428.22999999999996 838.8999999999999 429.16999999999996 841.2899999999998 431.03 C 843.6799999999998 432.9 844.8799999999999 436.22999999999996 844.8799999999999 441.01 L 844.8799999999999 487.65 Z" stroke-linecap="round" />
</g>
		<g transform="matrix(1 0 0 1 328.86 19.98)"  >
<path style="stroke: none; stroke-width: 1; stroke-dasharray: none; stroke-linecap: butt; stroke-dashoffset: 0; stroke-linejoin: miter; stroke-miterlimit: 4; fill: rgb(254,101,25); fill-rule: nonzero; opacity: 1;" vector-effect="non-scaling-stroke"  transform=" translate(-868.68, -559.63)" d="M 854.29 559.63 C 854.29 555.54 855.5699999999999 552.09 858.13 549.27 C 860.6899999999999 546.46 864.2 545.05 868.68 545.05 C 873.1599999999999 545.05 876.67 546.4599999999999 879.2299999999999 549.27 C 881.7899999999998 552.0799999999999 883.0699999999999 555.54 883.0699999999999 559.63 C 883.0699999999999 563.72 881.79 567.18 879.2299999999999 569.99 C 876.67 572.8 873.1599999999999 574.21 868.68 574.21 C 864.2 574.21 860.6899999999999 572.8000000000001 858.13 569.99 C 855.57 567.1800000000001 854.29 563.73 854.29 559.63 Z" stroke-linecap="round" />
</g>
		<g transform="matrix(1 0 0 1 143.76 -18.17)"  >
<path style="stroke: none; stroke-width: 1; stroke-dasharray: none; stroke-linecap: butt; stroke-dashoffset: 0; stroke-linejoin: miter; stroke-miterlimit: 4; fill: rgb(254,101,25); fill-rule: nonzero; opacity: 1;" vector-effect="non-scaling-stroke"  transform=" translate(-683.58, -521.48)" d="M 733.82 523.08 C 733.82 521.75 733.85 520.4300000000001 733.9000000000001 519.13 C 732.5400000000001 520.4 731.4200000000001 521.6899999999999 730.6000000000001 522.87 C 728.4000000000001 526.05 726.7300000000001 530.51 723.2300000000001 535.01 C 719.7300000000001 539.51 715.3500000000001 543.46 710.0800000000002 546.87 C 702.3000000000002 551.92 694.6500000000002 554.2 687.1300000000001 553.74 C 681.1200000000001 553.36 675.4900000000001 550.8100000000001 670.2500000000001 546.07 L 717.8200000000002 504.43000000000006 C 720.8400000000001 501.94000000000005 722.7000000000002 499.26000000000005 723.4200000000002 496.39000000000004 C 724.1400000000002 493.52000000000004 723.3700000000002 490.32000000000005 721.0800000000002 486.81000000000006 C 716.1200000000001 479.1600000000001 709.9400000000002 473.55000000000007 702.5400000000002 469.9800000000001 C 695.1500000000002 466.4100000000001 687.2600000000002 464.9700000000001 678.9000000000002 465.6700000000001 C 670.5400000000002 466.37000000000006 662.2100000000002 469.4100000000001 653.9300000000002 474.7800000000001 C 648.0400000000002 478.61000000000007 643.0200000000002 483.24000000000007 638.9000000000002 488.68000000000006 C 634.7600000000002 494.12000000000006 631.9000000000002 500.08000000000004 630.3100000000002 506.5400000000001 C 628.7100000000002 513.0100000000001 628.6000000000001 519.9100000000001 629.9500000000002 527.22 C 631.3100000000002 534.5400000000001 634.4700000000001 542.02 639.4300000000002 549.6700000000001 C 646.3500000000001 560.33 654.2200000000001 567.8700000000001 663.0600000000002 572.2900000000001 C 671.8900000000002 576.72 681.2100000000002 578.3000000000001 690.9900000000001 577.0300000000001 C 700.7700000000001 575.7700000000001 710.4900000000001 572.0000000000001 720.1500000000001 565.7300000000001 C 726.4100000000001 561.6600000000001 731.5900000000001 557.4100000000001 735.6700000000001 553.0000000000001 C 736.5600000000001 552.0300000000001 737.3800000000001 551.0800000000002 738.1400000000001 550.1300000000001 C 735.2500000000001 542.3100000000001 733.8000000000001 533.2600000000001 733.8000000000001 523.1000000000001 Z M 658.35 530.85 C 653.94 523.1800000000001 652.37 516 653.64 509.31 C 655.02 502.09 658.9 496.41 665.3 492.26 C 671.5699999999999 488.19 677.4699999999999 486.86 683.01 488.25 C 688.55 489.65 693.05 492.61 696.52 497.13 L 658.35 530.85 Z" stroke-linecap="round" />
</g>
		<g transform="matrix(1 0 0 1 36.25 83.03)"  >
<path style="stroke: none; stroke-width: 1; stroke-dasharray: none; stroke-linecap: butt; stroke-dashoffset: 0; stroke-linejoin: miter; stroke-miterlimit: 4; fill: rgb(0,0,0); fill-rule: nonzero; opacity: 1;" vector-effect="non-scaling-stroke"  transform=" translate(-576.07, -622.68)" d="M 569.28 623.4 L 564.12 623.4 L 564.12 603.84 C 564.33 603.76 564.65 603.6600000000001 565.1 603.5600000000001 C 565.5400000000001 603.46 566.01 603.4000000000001 566.52 603.4000000000001 C 567.4399999999999 603.4000000000001 568.13 603.58 568.6 603.9300000000001 C 569.0600000000001 604.2900000000001 569.2900000000001 604.8800000000001 569.2900000000001 605.72 L 569.2900000000001 623.39 Z M 564.12 619.62 L 569.28 619.62 L 569.28 641.45 L 566.89 641.95 C 566.09 641.95 565.43 641.69 564.91 641.1600000000001 C 564.39 640.6400000000001 564.12 639.9800000000001 564.12 639.1800000000001 L 564.12 619.6200000000001 Z M 566.89 641.95 L 566.89 637.5500000000001 L 587.33 637.5500000000001 C 587.5400000000001 637.72 587.71 637.9900000000001 587.83 638.3700000000001 C 587.95 638.7500000000001 588.0200000000001 639.1700000000001 588.0200000000001 639.6300000000001 C 588.0200000000001 640.3400000000001 587.83 640.9100000000001 587.45 641.3300000000002 C 587.07 641.7500000000002 586.57 641.9600000000002 585.94 641.9600000000002 L 566.8800000000001 641.9600000000002 Z" stroke-linecap="round" />
</g>
		<g transform="matrix(1 0 0 1 63.01 87.77)"  >
<path style="stroke: none; stroke-width: 1; stroke-dasharray: none; stroke-linecap: butt; stroke-dashoffset: 0; stroke-linejoin: miter; stroke-miterlimit: 4; fill: rgb(0,0,0); fill-rule: nonzero; opacity: 1;" vector-effect="non-scaling-stroke"  transform=" translate(-602.83, -627.42)" d="M 592.8 630.63 L 592.55 626.67 L 611.55 624.0899999999999 C 611.38 621.79 610.5799999999999 619.8899999999999 609.16 618.3999999999999 C 607.73 616.9099999999999 605.76 616.1699999999998 603.25 616.1699999999998 C 600.74 616.1699999999998 598.5 617.0999999999998 596.8 618.9699999999998 C 595.0999999999999 620.8399999999998 594.25 623.5099999999998 594.25 626.9899999999998 L 594.25 628.3699999999998 C 594.54 631.7299999999998 595.64 634.2699999999998 597.55 636.0099999999998 C 599.4599999999999 637.7499999999998 602.0699999999999 638.6199999999998 605.38 638.6199999999998 C 607.14 638.6199999999998 608.73 638.3299999999998 610.16 637.7399999999998 C 611.5899999999999 637.1499999999997 612.7199999999999 636.5199999999998 613.56 635.8499999999998 C 614.02 636.1399999999998 614.39 636.4899999999998 614.66 636.8899999999998 C 614.93 637.2899999999997 615.0699999999999 637.7399999999998 615.0699999999999 638.2399999999998 C 615.0699999999999 639.0399999999997 614.6199999999999 639.7799999999997 613.7199999999999 640.4699999999998 C 612.8199999999999 641.1599999999999 611.6199999999999 641.7199999999998 610.1299999999999 642.1399999999998 C 608.6399999999999 642.5599999999997 606.9699999999999 642.7699999999998 605.1299999999999 642.7699999999998 C 601.8999999999999 642.7699999999998 599.0999999999999 642.1799999999997 596.7299999999999 641.0099999999998 C 594.3599999999999 639.8399999999998 592.5399999999998 638.0799999999998 591.2599999999999 635.7599999999998 C 589.9799999999999 633.4299999999997 589.3399999999999 630.5899999999998 589.3399999999999 627.2399999999998 C 589.3399999999999 624.8499999999998 589.6899999999999 622.7199999999998 590.3799999999999 620.8599999999998 C 591.0699999999999 618.9899999999998 592.0399999999998 617.4099999999997 593.2699999999999 616.1099999999998 C 594.5099999999999 614.8099999999998 595.9799999999999 613.8099999999998 597.6999999999998 613.1199999999998 C 599.4199999999998 612.4299999999997 601.2899999999998 612.0799999999998 603.2999999999998 612.0799999999998 C 605.8599999999998 612.0799999999998 608.1099999999998 612.6299999999998 610.0599999999998 613.7199999999998 C 612.0099999999999 614.8099999999998 613.5399999999998 616.3299999999998 614.6499999999999 618.2799999999997 C 615.7599999999999 620.2299999999998 616.3199999999998 622.4599999999997 616.3199999999998 624.9799999999998 C 616.3199999999998 625.8999999999997 616.1099999999998 626.5599999999998 615.6899999999998 626.9599999999998 C 615.2699999999999 627.3599999999998 614.6799999999998 627.5999999999998 613.9299999999998 627.6799999999998 L 592.7899999999998 630.6399999999999 Z" stroke-linecap="round" />
</g>
		<g transform="matrix(1 0 0 1 90.76 87.8)"  >
<path style="stroke: none; stroke-width: 1; stroke-dasharray: none; stroke-linecap: butt; stroke-dashoffset: 0; stroke-linejoin: miter; stroke-miterlimit: 4; fill: rgb(0,0,0); fill-rule: nonzero; opacity: 1;" vector-effect="non-scaling-stroke"  transform=" translate(-630.58, -627.44)" d="M 630.86 642.83 C 626.92 642.83 623.87 642.0500000000001 621.71 640.5 C 619.5500000000001 638.95 618.47 636.71 618.47 633.77 C 618.47 631.05 619.38 628.96 621.21 627.51 C 623.0400000000001 626.06 625.5600000000001 625.1899999999999 628.7900000000001 624.9 L 637.72 624.02 L 637.72 622.26 C 637.72 620.16 637.09 618.63 635.83 617.67 C 634.57 616.7099999999999 632.87 616.2199999999999 630.73 616.2199999999999 C 629.01 616.2199999999999 627.36 616.4699999999999 625.79 616.9699999999999 C 624.2199999999999 617.4699999999999 622.8199999999999 618.04 621.61 618.67 C 621.27 618.38 620.97 618.03 620.7 617.63 C 620.4300000000001 617.23 620.2900000000001 616.82 620.2900000000001 616.4 C 620.2900000000001 615.31 620.9000000000001 614.47 622.1100000000001 613.88 C 623.2400000000001 613.29 624.5500000000002 612.84 626.0400000000001 612.53 C 627.5300000000001 612.22 629.1100000000001 612.06 630.7900000000001 612.06 C 634.44 612.06 637.33 612.88 639.47 614.51 C 641.61 616.15 642.6800000000001 618.73 642.6800000000001 622.25 L 642.6800000000001 637.16 C 642.6800000000001 638.0799999999999 642.5000000000001 638.79 642.1500000000001 639.27 C 641.7900000000001 639.75 641.2600000000001 640.1999999999999 640.5500000000001 640.62 C 639.5400000000001 641.17 638.2 641.67 636.5200000000001 642.13 C 634.8400000000001 642.59 632.95 642.82 630.8600000000001 642.82 Z M 630.86 638.68 C 632.62 638.68 634.08 638.5 635.23 638.14 C 636.38 637.79 637.21 637.4399999999999 637.71 637.1 L 637.71 627.98 L 629.9100000000001 628.8000000000001 C 627.7300000000001 628.97 626.1100000000001 629.45 625.07 630.2500000000001 C 624.0200000000001 631.0500000000001 623.5 632.2000000000002 623.5 633.7100000000002 C 623.5 635.2200000000001 624.12 636.4800000000001 625.36 637.3600000000001 C 626.6 638.2400000000001 628.4300000000001 638.6800000000002 630.86 638.6800000000002 Z" stroke-linecap="round" />
</g>
		<g transform="matrix(1 0 0 1 117.96 87.51)"  >
<path style="stroke: none; stroke-width: 1; stroke-dasharray: none; stroke-linecap: butt; stroke-dashoffset: 0; stroke-linejoin: miter; stroke-miterlimit: 4; fill: rgb(0,0,0); fill-rule: nonzero; opacity: 1;" vector-effect="non-scaling-stroke"  transform=" translate(-657.77, -627.16)" d="M 653.75 618.3 L 653.75 628.24 L 648.72 628.24 L 648.72 618.6800000000001 C 648.72 617.72 648.9 616.95 649.25 616.3800000000001 C 649.61 615.8100000000001 650.2 615.2600000000001 651.04 614.7100000000002 C 652.13 614.0000000000001 653.62 613.3800000000001 655.51 612.8500000000001 C 657.4 612.3300000000002 659.49 612.0600000000002 661.8 612.0600000000002 C 665.15 612.0600000000002 666.8299999999999 612.9000000000002 666.8299999999999 614.5800000000002 C 666.8299999999999 615.0000000000001 666.77 615.3900000000001 666.6399999999999 615.7400000000001 C 666.5099999999999 616.1000000000001 666.3499999999999 616.4000000000001 666.1399999999999 616.6500000000001 C 665.7199999999999 616.57 665.1699999999998 616.4800000000001 664.4999999999999 616.4000000000001 C 663.8299999999999 616.32 663.1599999999999 616.2700000000001 662.4899999999999 616.2700000000001 C 660.56 616.2700000000001 658.8599999999999 616.4700000000001 657.3899999999999 616.8700000000001 C 655.9199999999998 617.2700000000001 654.7099999999999 617.7400000000001 653.7399999999999 618.2900000000001 Z M 648.72 625.35 L 653.75 626.1 L 653.75 641.82 C 653.54 641.9000000000001 653.23 642 652.81 642.1 C 652.39 642.2 651.93 642.26 651.43 642.26 C 650.55 642.26 649.88 642.08 649.42 641.73 C 648.9599999999999 641.38 648.7299999999999 640.8000000000001 648.7299999999999 640 L 648.7299999999999 625.34 Z" stroke-linecap="round" />
</g>
		<g transform="matrix(1 0 0 1 142.06 87.53)"  >
<path style="stroke: none; stroke-width: 1; stroke-dasharray: none; stroke-linecap: butt; stroke-dashoffset: 0; stroke-linejoin: miter; stroke-miterlimit: 4; fill: rgb(0,0,0); fill-rule: nonzero; opacity: 1;" vector-effect="non-scaling-stroke"  transform=" translate(-681.88, -627.18)" d="M 694.45 622.77 L 694.45 629.1899999999999 L 689.4200000000001 629.1899999999999 L 689.4200000000001 623.03 C 689.4200000000001 620.68 688.7600000000001 618.9599999999999 687.44 617.87 C 686.12 616.78 684.35 616.24 682.1300000000001 616.24 C 680.4500000000002 616.24 678.9600000000002 616.45 677.6600000000001 616.87 C 676.3600000000001 617.29 675.2500000000001 617.77 674.33 618.32 L 674.33 629.2 L 669.3000000000001 629.2 L 669.3000000000001 618.57 C 669.3000000000001 617.69 669.48 616.97 669.83 616.4000000000001 C 670.19 615.83 670.8100000000001 615.2800000000001 671.69 614.7300000000001 C 672.7800000000001 614.1000000000001 674.23 613.5000000000001 676.0300000000001 612.9400000000002 C 677.83 612.3700000000001 679.8700000000001 612.0900000000001 682.1300000000001 612.0900000000001 C 685.94 612.0900000000001 688.9500000000002 612.9600000000002 691.1600000000001 614.7000000000002 C 693.3600000000001 616.4400000000002 694.46 619.1300000000001 694.46 622.7800000000002 Z M 669.29 625.72 L 674.3199999999999 625.72 L 674.3199999999999 641.82 C 674.1099999999999 641.9000000000001 673.8 642 673.3799999999999 642.1 C 672.9599999999999 642.2 672.4999999999999 642.26 671.9999999999999 642.26 C 671.1199999999999 642.26 670.4499999999999 642.08 669.9899999999999 641.73 C 669.5299999999999 641.38 669.2999999999998 640.8000000000001 669.2999999999998 640 L 669.2999999999998 625.72 Z M 689.42 625.72 L 694.4499999999999 625.72 L 694.4499999999999 641.82 C 694.2399999999999 641.9000000000001 693.92 642 693.4699999999999 642.1 C 693.0299999999999 642.2 692.5799999999999 642.26 692.1199999999999 642.26 C 691.1999999999999 642.26 690.5199999999999 642.08 690.0799999999999 641.73 C 689.6399999999999 641.37 689.42 640.8000000000001 689.42 640 L 689.42 625.72 Z" stroke-linecap="round" />
</g>
		<g transform="matrix(1 0 0 1 163.72 81.77)"  >
<path style="stroke: none; stroke-width: 1; stroke-dasharray: none; stroke-linecap: butt; stroke-dashoffset: 0; stroke-linejoin: miter; stroke-miterlimit: 4; fill: rgb(0,0,0); fill-rule: nonzero; opacity: 1;" vector-effect="non-scaling-stroke"  transform=" translate(-703.54, -621.42)" d="M 700.3 603.71 C 700.3 602.83 700.6099999999999 602.09 701.24 601.48 C 701.87 600.87 702.64 600.57 703.57 600.57 C 704.5000000000001 600.57 705.3100000000001 600.87 705.9000000000001 601.48 C 706.4900000000001 602.09 706.7800000000001 602.83 706.7800000000001 603.71 C 706.7800000000001 604.59 706.4900000000001 605.34 705.9000000000001 605.94 C 705.3100000000001 606.5500000000001 704.5400000000001 606.85 703.57 606.85 C 702.6 606.85 701.87 606.5500000000001 701.24 605.94 C 700.61 605.33 700.3 604.59 700.3 603.71 Z M 706.09 627.8 L 701.0600000000001 627.8 L 701.0600000000001 613.02 C 701.2700000000001 612.9399999999999 701.59 612.84 702.0400000000001 612.74 C 702.4800000000001 612.64 702.95 612.58 703.46 612.58 C 704.34 612.58 705 612.76 705.44 613.11 C 705.8800000000001 613.47 706.1 614.0600000000001 706.1 614.9 L 706.1 627.8 Z M 701.05 625.35 L 706.0799999999999 625.35 L 706.0799999999999 641.83 C 705.8699999999999 641.9100000000001 705.55 642.01 705.1399999999999 642.11 C 704.7199999999999 642.21 704.2599999999999 642.27 703.7599999999999 642.27 C 702.8799999999999 642.27 702.2099999999999 642.09 701.7499999999999 641.74 C 701.2899999999998 641.38 701.0599999999998 640.8100000000001 701.0599999999998 640.01 L 701.0599999999998 625.35 Z" stroke-linecap="round" />
</g>
		<g transform="matrix(1 0 0 1 185.52 87.53)"  >
<path style="stroke: none; stroke-width: 1; stroke-dasharray: none; stroke-linecap: butt; stroke-dashoffset: 0; stroke-linejoin: miter; stroke-miterlimit: 4; fill: rgb(0,0,0); fill-rule: nonzero; opacity: 1;" vector-effect="non-scaling-stroke"  transform=" translate(-725.34, -627.18)" d="M 737.91 622.77 L 737.91 629.1899999999999 L 732.88 629.1899999999999 L 732.88 623.03 C 732.88 620.68 732.22 618.9599999999999 730.9 617.87 C 729.5799999999999 616.78 727.81 616.24 725.59 616.24 C 723.9100000000001 616.24 722.4200000000001 616.45 721.12 616.87 C 719.82 617.29 718.71 617.77 717.79 618.32 L 717.79 629.2 L 712.76 629.2 L 712.76 618.57 C 712.76 617.69 712.9399999999999 616.97 713.29 616.4000000000001 C 713.65 615.83 714.27 615.2800000000001 715.15 614.7300000000001 C 716.24 614.1000000000001 717.6899999999999 613.5000000000001 719.49 612.9400000000002 C 721.29 612.3700000000001 723.33 612.0900000000001 725.59 612.0900000000001 C 729.4 612.0900000000001 732.4100000000001 612.9600000000002 734.62 614.7000000000002 C 736.82 616.4400000000002 737.92 619.1300000000001 737.92 622.7800000000002 Z M 712.75 625.72 L 717.78 625.72 L 717.78 641.82 C 717.5699999999999 641.9000000000001 717.26 642 716.8399999999999 642.1 C 716.42 642.2 715.9599999999999 642.26 715.4599999999999 642.26 C 714.5799999999999 642.26 713.91 642.08 713.4499999999999 641.73 C 712.9899999999999 641.38 712.7599999999999 640.8000000000001 712.7599999999999 640 L 712.7599999999999 625.72 Z M 732.88 625.72 L 737.91 625.72 L 737.91 641.82 C 737.6999999999999 641.9000000000001 737.38 642 736.93 642.1 C 736.4899999999999 642.2 736.04 642.26 735.5799999999999 642.26 C 734.66 642.26 733.9799999999999 642.08 733.54 641.73 C 733.0999999999999 641.37 732.88 640.8000000000001 732.88 640 L 732.88 625.72 Z" stroke-linecap="round" />
</g>
		<g transform="matrix(1 0 0 1 215.87 93.72)"  >
<path style="stroke: none; stroke-width: 1; stroke-dasharray: none; stroke-linecap: butt; stroke-dashoffset: 0; stroke-linejoin: miter; stroke-miterlimit: 4; fill: rgb(0,0,0); fill-rule: nonzero; opacity: 1;" vector-effect="non-scaling-stroke"  transform=" translate(-755.69, -633.37)" d="M 756.28 641.07 C 753.85 641.07 751.6 640.6 749.55 639.6500000000001 C 747.49 638.71 745.8399999999999 637.1700000000001 744.5799999999999 635.0300000000001 C 743.3199999999999 632.8900000000001 742.6899999999999 630.0600000000001 742.6899999999999 626.5400000000001 C 742.6899999999999 623.35 743.31 620.69 744.55 618.5500000000001 C 745.79 616.4100000000001 747.5 614.8000000000001 749.68 613.71 C 751.8599999999999 612.62 754.3599999999999 612.07 757.17 612.07 C 759.0999999999999 612.07 760.87 612.3100000000001 762.49 612.7900000000001 C 764.1 613.2700000000001 765.46 613.8700000000001 766.55 614.58 C 767.18 615 767.6899999999999 615.47 768.0899999999999 616 C 768.4899999999999 616.53 768.6899999999999 617.16 768.6899999999999 617.92 L 768.6899999999999 637.36 L 763.66 637.36 L 763.66 617.99 C 762.9499999999999 617.53 762.06 617.12 760.99 616.76 C 759.92 616.4 758.65 616.23 757.1800000000001 616.23 C 754.3700000000001 616.23 752.11 617.09 750.3900000000001 618.8100000000001 C 748.6700000000001 620.5300000000001 747.8100000000001 623.09 747.8100000000001 626.48 C 747.8100000000001 630.25 748.6800000000001 632.94 750.4200000000001 634.53 C 752.1600000000001 636.12 754.3100000000001 636.92 756.8700000000001 636.92 C 758.7100000000002 636.92 760.2000000000002 636.61 761.3400000000001 635.9799999999999 C 762.4700000000001 635.3499999999999 763.3700000000001 634.6599999999999 764.0400000000002 633.8999999999999 L 764.2900000000002 638.3699999999999 C 763.6600000000002 639.0399999999998 762.6600000000002 639.6599999999999 761.3000000000002 640.2299999999999 C 759.9400000000002 640.8 758.2700000000002 641.0799999999999 756.3000000000002 641.0799999999999 Z M 763.64 642.89 L 763.64 636.29 L 768.67 636.29 L 768.67 643.2099999999999 C 768.67 645.9799999999999 768.0699999999999 648.1999999999999 766.88 649.8799999999999 C 765.68 651.5599999999998 764.05 652.7699999999999 761.97 653.5299999999999 C 759.89 654.2799999999999 757.5600000000001 654.6599999999999 754.96 654.6599999999999 C 752.86 654.6599999999999 751.0600000000001 654.4299999999998 749.5500000000001 653.9699999999998 C 748.0400000000001 653.5099999999998 747.0100000000001 653.1299999999998 746.47 652.8399999999998 C 745.21 652.1299999999998 744.58 651.2299999999998 744.58 650.1399999999998 C 744.58 649.5499999999997 744.72 649.0599999999997 744.99 648.6599999999997 C 745.26 648.2599999999998 745.61 647.9599999999997 746.03 647.7499999999998 C 746.91 648.4199999999997 748.16 649.0399999999997 749.77 649.6099999999998 C 751.38 650.1799999999998 753.11 650.4599999999998 754.96 650.4599999999998 C 757.77 650.4599999999998 759.9200000000001 649.8499999999998 761.4100000000001 648.6399999999998 C 762.9000000000001 647.4199999999997 763.6400000000001 645.5199999999998 763.6400000000001 642.9099999999997 Z" stroke-linecap="round" />
</g>
		<g transform="matrix(1 0 0 1 260.31 83.18)"  >
<path style="stroke: none; stroke-width: 1; stroke-dasharray: none; stroke-linecap: butt; stroke-dashoffset: 0; stroke-linejoin: miter; stroke-miterlimit: 4; fill: rgb(0,0,0); fill-rule: nonzero; opacity: 1;" vector-effect="non-scaling-stroke"  transform=" translate(-800.13, -622.83)" d="M 790.31 623.4 L 785.15 623.4 L 785.15 603.84 C 785.36 603.76 785.68 603.6600000000001 786.13 603.5600000000001 C 786.57 603.46 787.04 603.4000000000001 787.55 603.4000000000001 C 788.4699999999999 603.4000000000001 789.16 603.58 789.63 603.9300000000001 C 790.09 604.2900000000001 790.32 604.8800000000001 790.32 605.72 L 790.32 623.39 Z M 785.15 619.18 L 790.31 619.18 L 790.31 641.8199999999999 C 790.06 641.9 789.7199999999999 641.9999999999999 789.3 642.0999999999999 C 788.88 642.1999999999999 788.42 642.2599999999999 787.92 642.2599999999999 C 787 642.2599999999999 786.31 642.0699999999998 785.8399999999999 641.6899999999998 C 785.3699999999999 641.3099999999998 785.1499999999999 640.7299999999998 785.1499999999999 639.9299999999998 L 785.1499999999999 619.1699999999998 Z M 812.64 624.72 L 788.23 624.72 L 788.23 620.44 L 812.64 620.44 L 812.64 624.72 Z M 815.09 623.4 L 809.9300000000001 623.4 L 809.9300000000001 603.84 C 810.1400000000001 603.76 810.46 603.6600000000001 810.9100000000001 603.5600000000001 C 811.3500000000001 603.46 811.82 603.4000000000001 812.33 603.4000000000001 C 813.25 603.4000000000001 813.94 603.58 814.4100000000001 603.9300000000001 C 814.8700000000001 604.2900000000001 815.1000000000001 604.8800000000001 815.1000000000001 605.72 L 815.1000000000001 623.39 Z M 809.94 619.18 L 815.1 619.18 L 815.1 641.8199999999999 C 814.85 641.9 814.51 641.9999999999999 814.09 642.0999999999999 C 813.6700000000001 642.1999999999999 813.21 642.2599999999999 812.71 642.2599999999999 C 811.7900000000001 642.2599999999999 811.1 642.0699999999998 810.63 641.6899999999998 C 810.16 641.3099999999998 809.9399999999999 640.7299999999998 809.9399999999999 639.9299999999998 L 809.9399999999999 619.1699999999998 Z" stroke-linecap="round" />
</g>
		<g transform="matrix(1 0 0 1 295.02 88.03)"  >
<path style="stroke: none; stroke-width: 1; stroke-dasharray: none; stroke-linecap: butt; stroke-dashoffset: 0; stroke-linejoin: miter; stroke-miterlimit: 4; fill: rgb(0,0,0); fill-rule: nonzero; opacity: 1;" vector-effect="non-scaling-stroke"  transform=" translate(-834.84, -627.68)" d="M 827.3 628.87 L 822.27 628.87 L 822.27 613.02 C 822.48 612.9399999999999 822.8 612.84 823.25 612.74 C 823.69 612.64 824.16 612.58 824.67 612.58 C 825.55 612.58 826.2099999999999 612.76 826.65 613.11 C 827.09 613.47 827.31 614.0600000000001 827.31 614.9 L 827.31 628.86 Z M 822.26 631.32 L 822.26 625.6 L 827.29 625.6 L 827.29 631.07 C 827.29 633.75 828 635.6800000000001 829.43 636.86 C 830.8599999999999 638.03 832.8299999999999 638.62 835.3399999999999 638.62 C 837.0199999999999 638.62 838.4399999999999 638.44 839.6199999999999 638.09 C 840.7899999999998 637.73 841.7199999999999 637.37 842.3899999999999 636.99 L 842.3899999999999 625.6 L 847.4199999999998 625.6 L 847.4199999999998 636.8000000000001 C 847.4199999999998 637.6800000000001 847.2999999999998 638.3800000000001 847.0699999999998 638.9100000000001 C 846.8399999999998 639.44 846.2799999999999 639.95 845.3999999999999 640.45 C 844.4799999999999 641 843.1599999999999 641.5200000000001 841.4399999999998 642.0200000000001 C 839.7199999999998 642.5200000000001 837.6699999999998 642.7700000000001 835.2799999999999 642.7700000000001 C 832.5099999999999 642.7700000000001 830.1499999999999 642.3600000000001 828.1999999999998 641.5400000000001 C 826.2499999999998 640.72 824.7699999999999 639.46 823.7699999999999 637.7700000000001 C 822.7599999999999 636.07 822.2599999999999 633.9200000000001 822.2599999999999 631.32 Z M 847.43 628.87 L 842.4 628.87 L 842.4 613.02 C 842.61 612.9399999999999 842.93 612.84 843.37 612.74 C 843.8100000000001 612.64 844.26 612.58 844.72 612.58 C 845.64 612.58 846.32 612.76 846.76 613.11 C 847.2 613.47 847.42 614.0600000000001 847.42 614.9 L 847.42 628.86 Z" stroke-linecap="round" />
</g>
		<g transform="matrix(1 0 0 1 327.28 82.11)"  >
<path style="stroke: none; stroke-width: 1; stroke-dasharray: none; stroke-linecap: butt; stroke-dashoffset: 0; stroke-linejoin: miter; stroke-miterlimit: 4; fill: rgb(0,0,0); fill-rule: nonzero; opacity: 1;" vector-effect="non-scaling-stroke"  transform=" translate(-867.1, -621.76)" d="M 858.87 616.73 L 853.84 616.73 L 853.84 601.19 C 854.0500000000001 601.11 854.37 601.0100000000001 854.82 600.9100000000001 C 855.2700000000001 600.8100000000001 855.73 600.7500000000001 856.24 600.7500000000001 C 857.12 600.7500000000001 857.78 600.9300000000001 858.22 601.2900000000001 C 858.6600000000001 601.6500000000001 858.88 602.22 858.88 603.0200000000001 L 858.88 616.7300000000001 Z M 866.67 612.07 C 869.27 612.07 871.61 612.63 873.68 613.74 C 875.76 614.85 877.39 616.54 878.5899999999999 618.8 C 879.79 621.06 880.3799999999999 623.9399999999999 880.3799999999999 627.42 C 880.3799999999999 630.9 879.7599999999999 633.8399999999999 878.5199999999999 636.0999999999999 C 877.2799999999999 638.3599999999999 875.5699999999998 640.04 873.3899999999999 641.1299999999999 C 871.2099999999999 642.2199999999999 868.6699999999998 642.7699999999999 865.7799999999999 642.7699999999999 C 863.7199999999999 642.7699999999999 861.8699999999999 642.5199999999999 860.2099999999998 642.0199999999999 C 858.5499999999998 641.5199999999999 857.1999999999998 640.9699999999999 856.1499999999999 640.3799999999999 C 855.2699999999999 639.7899999999998 854.6599999999999 639.2499999999999 854.3299999999998 638.7499999999999 C 853.9899999999998 638.2499999999999 853.8299999999998 637.5499999999998 853.8299999999998 636.6699999999998 L 853.8299999999998 615.7199999999998 L 858.8599999999998 615.7199999999998 L 858.8599999999998 636.6699999999998 C 859.4899999999998 637.1299999999999 860.4099999999997 637.5699999999998 861.6299999999998 637.9899999999999 C 862.8499999999998 638.4099999999999 864.2299999999998 638.6199999999999 865.7799999999997 638.6199999999999 C 868.6299999999998 638.6199999999999 870.9299999999997 637.7199999999999 872.6699999999997 635.9199999999998 C 874.4099999999997 634.1199999999999 875.2799999999997 631.2899999999998 875.2799999999997 627.4299999999998 C 875.2799999999997 623.5699999999998 874.3999999999997 620.6899999999998 872.6399999999998 618.9099999999999 C 870.8799999999998 617.1299999999999 868.6299999999998 616.2399999999999 865.9099999999997 616.2399999999999 C 864.2299999999998 616.2399999999999 862.7399999999998 616.56 861.4399999999997 617.2099999999999 C 860.1399999999998 617.8599999999999 859.0699999999997 618.6099999999999 858.2299999999997 619.4399999999999 L 857.2899999999996 615.3499999999999 C 858.2099999999996 614.6399999999999 859.4499999999996 613.9099999999999 860.9999999999997 613.18 C 862.5499999999996 612.4499999999999 864.4399999999997 612.0799999999999 866.6599999999996 612.0799999999999 Z" stroke-linecap="round" />
</g>
</g>
</g>
<g transform="matrix(NaN NaN NaN NaN 0 0)"  >
<g style=""   >
</g>
</g>
</svg>