<svg xmlns="http://www.w3.org/2000/svg" xmlns:xlink="http://www.w3.org/1999/xlink" width="800" zoomAndPan="magnify" viewBox="0 0 600 209.999996" height="280" preserveAspectRatio="xMidYMid meet" version="1.2"><g id="45ebc82206"><path style=" stroke:none;fill-rule:nonzero;fill:#000000;fill-opacity:1;" d="M 68.261719 63.167969 C 60.929688 63.167969 54.789062 65.546875 49.835938 70.3125 C 44.882812 75.078125 42.414062 82.039062 42.414062 91.203125 C 42.414062 100.367188 44.792969 107.085938 49.566406 111.726562 C 54.332031 116.371094 60.503906 118.691406 68.078125 118.691406 C 72.601562 118.691406 76.417969 118.109375 79.53125 116.949219 C 82.644531 115.789062 85.367188 114.539062 87.6875 113.191406 C 89.519531 114.292969 90.957031 115.601562 91.996094 117.128906 C 93.035156 118.660156 93.558594 120.523438 93.558594 122.722656 C 93.558594 126.871094 91.046875 130.265625 86.046875 132.890625 C 81.035156 135.511719 74.4375 136.828125 66.25 136.828125 C 56.964844 136.828125 48.808594 135.144531 41.777344 131.785156 C 34.75 128.425781 29.253906 123.324219 25.28125 116.484375 C 21.3125 109.644531 19.324219 101.207031 19.324219 91.195312 C 19.324219 81.183594 21.433594 72.199219 25.652344 65.351562 C 29.867188 58.507812 35.484375 53.410156 42.511719 50.050781 C 49.535156 46.691406 57.265625 45.007812 65.703125 45.007812 C 74.136719 45.007812 80.242188 46.410156 85.128906 49.222656 C 90.019531 52.035156 92.460938 55.515625 92.460938 59.667969 C 92.460938 61.5 91.972656 63.21875 91 64.800781 C 90.019531 66.386719 88.855469 67.671875 87.515625 68.652344 C 85.074219 67.1875 82.320312 65.90625 79.269531 64.800781 C 76.210938 63.699219 72.550781 63.152344 68.277344 63.152344 Z M 68.261719 63.167969 "/><path style=" stroke:none;fill-rule:nonzero;fill:#000000;fill-opacity:1;" d="M 125.46875 68.300781 L 125.46875 93.410156 L 102.925781 93.410156 L 102.925781 66.46875 C 102.925781 63.421875 103.660156 60.820312 105.121094 58.679688 C 106.585938 56.546875 108.660156 54.554688 111.351562 52.722656 C 115.011719 50.523438 119.65625 48.691406 125.277344 47.222656 C 130.894531 45.757812 136.941406 45.023438 143.425781 45.023438 C 154.910156 45.023438 160.65625 48.570312 160.65625 55.65625 C 160.65625 57.371094 160.410156 58.925781 159.917969 60.332031 C 159.429688 61.738281 158.816406 62.988281 158.089844 64.089844 C 156.863281 63.847656 155.339844 63.632812 153.503906 63.453125 C 151.671875 63.273438 149.710938 63.175781 147.632812 63.175781 C 143.238281 63.175781 139.109375 63.632812 135.257812 64.550781 C 131.410156 65.464844 128.140625 66.722656 125.449219 68.308594 Z M 102.925781 85.898438 L 125.46875 86.992188 L 125.46875 133.910156 C 124.484375 134.277344 123.089844 134.613281 121.25 134.914062 C 119.417969 135.21875 117.398438 135.375 115.199219 135.375 C 111.046875 135.375 107.960938 134.605469 105.949219 133.085938 C 103.929688 131.554688 102.925781 128.84375 102.925781 124.925781 L 102.925781 85.890625 Z M 102.925781 85.898438 "/><path style=" stroke:none;fill-rule:nonzero;fill:#000000;fill-opacity:1;" d="M 199.878906 137.03125 C 187.660156 137.03125 178.074219 134.679688 171.109375 129.980469 C 164.144531 125.277344 160.664062 118.28125 160.664062 108.988281 C 160.664062 100.808594 163.253906 94.539062 168.453125 90.207031 C 173.640625 85.875 181.1875 83.210938 191.085938 82.238281 L 216.015625 79.671875 L 216.015625 76.367188 C 216.015625 71.480469 214.332031 67.941406 210.972656 65.734375 C 207.613281 63.535156 202.878906 62.433594 196.765625 62.433594 C 192 62.433594 187.359375 63.046875 182.835938 64.261719 C 178.316406 65.488281 174.28125 66.953125 170.742188 68.660156 C 169.515625 67.679688 168.417969 66.339844 167.4375 64.628906 C 166.457031 62.921875 165.976562 61.148438 165.976562 59.316406 C 165.976562 54.921875 168.417969 51.683594 173.308594 49.609375 C 176.722656 48.023438 180.730469 46.863281 185.3125 46.125 C 189.898438 45.390625 194.445312 45.023438 198.972656 45.023438 C 210.945312 45.023438 220.476562 47.554688 227.5625 52.632812 C 234.648438 57.699219 238.199219 65.675781 238.199219 76.546875 L 238.199219 118.699219 C 238.199219 121.632812 237.496094 123.953125 236.089844 125.664062 C 234.683594 127.378906 232.882812 128.898438 230.675781 130.25 C 227.253906 132.203125 222.921875 133.820312 217.664062 135.105469 C 212.410156 136.386719 206.484375 137.023438 199.886719 137.023438 Z M 199.878906 119.800781 C 203.542969 119.800781 206.84375 119.433594 209.777344 118.699219 C 212.710938 117.964844 214.84375 117.171875 216.195312 116.320312 L 216.195312 95.429688 L 198.046875 97.261719 C 193.039062 97.628906 189.222656 98.699219 186.597656 100.464844 C 183.964844 102.238281 182.65625 104.835938 182.65625 108.253906 C 182.65625 111.671875 184.0625 114.605469 186.875 116.679688 C 189.6875 118.757812 194.027344 119.792969 199.886719 119.792969 Z M 199.878906 119.800781 "/><path style=" stroke:none;fill-rule:nonzero;fill:#000000;fill-opacity:1;" d="M 275.386719 44.476562 L 275.386719 68.121094 L 253.761719 68.121094 L 253.761719 43.558594 C 253.761719 35.859375 255.320312 29.597656 258.433594 24.777344 C 261.550781 19.953125 265.890625 16.40625 271.449219 14.140625 C 277.003906 11.886719 283.332031 10.75 290.417969 10.75 C 298.363281 10.75 304.410156 11.789062 308.5625 13.863281 C 312.714844 15.941406 314.792969 19.0625 314.792969 23.214844 C 314.792969 25.046875 314.390625 26.730469 313.597656 28.257812 C 312.804688 29.785156 311.859375 31.039062 310.753906 32.019531 C 308.433594 31.046875 305.835938 30.246094 302.964844 29.640625 C 300.097656 29.027344 297.070312 28.722656 293.890625 28.722656 C 287.410156 28.722656 282.710938 29.949219 279.777344 32.386719 C 276.84375 34.828125 275.378906 38.867188 275.378906 44.484375 Z M 275.386719 44.476562 "/><path style=" stroke:none;fill-rule:nonzero;fill:#000000;fill-opacity:1;" d="M 253.769531 61.703125 L 276.3125 61.703125 L 276.3125 133.917969 C 275.332031 134.285156 273.933594 134.621094 272.09375 134.925781 C 270.261719 135.226562 268.242188 135.382812 266.042969 135.382812 C 261.894531 135.382812 258.804688 134.613281 256.792969 133.09375 C 254.773438 131.566406 253.769531 128.851562 253.769531 124.9375 Z M 253.769531 61.703125 "/><path style=" stroke:none;fill-rule:nonzero;fill:#000000;fill-opacity:1;" d="M 243.683594 70.867188 L 243.683594 53.269531 L 292.722656 53.269531 C 293.214844 54.128906 293.730469 55.320312 294.285156 56.839844 C 294.832031 58.371094 295.109375 60.109375 295.109375 62.0625 C 295.109375 65.121094 294.40625 67.351562 293 68.75 C 291.59375 70.15625 289.609375 70.859375 287.042969 70.859375 L 243.683594 70.859375 Z M 243.683594 70.867188 "/><path style=" stroke:none;fill-rule:nonzero;fill:#000000;fill-opacity:1;" d="M 307.886719 70.867188 L 307.886719 53.269531 L 352.621094 53.269531 C 353.109375 54.128906 353.625 55.320312 354.179688 56.839844 C 354.730469 58.371094 355.007812 60.109375 355.007812 62.0625 C 355.007812 65.121094 354.304688 67.351562 352.898438 68.75 C 351.492188 70.15625 349.503906 70.859375 346.9375 70.859375 L 307.886719 70.859375 Z M 307.886719 70.867188 "/><path style=" stroke:none;fill-rule:nonzero;fill:#000000;fill-opacity:1;" d="M 342.289062 90.84375 L 319.746094 90.84375 L 319.746094 24.867188 C 320.71875 24.5 322.15625 24.128906 324.054688 23.761719 C 325.949219 23.394531 327.925781 23.214844 330.011719 23.214844 C 334.285156 23.214844 337.402344 23.976562 339.363281 25.503906 C 341.316406 27.03125 342.296875 29.753906 342.296875 33.660156 L 342.296875 90.84375 Z M 342.289062 90.84375 "/><path style=" stroke:none;fill-rule:nonzero;fill:#000000;fill-opacity:1;" d="M 319.746094 85.898438 L 342.289062 85.898438 L 342.289062 107.527344 C 342.289062 111.554688 343.480469 114.433594 345.859375 116.140625 C 348.238281 117.855469 351.628906 118.707031 356.027344 118.707031 C 357.980469 118.707031 360.089844 118.460938 362.355469 117.972656 C 364.609375 117.480469 366.539062 116.875 368.125 116.140625 C 368.976562 117.121094 369.777344 118.28125 370.503906 119.621094 C 371.238281 120.972656 371.605469 122.613281 371.605469 124.566406 C 371.605469 128.117188 369.921875 131.050781 366.5625 133.363281 C 363.203125 135.683594 357.980469 136.84375 350.894531 136.84375 C 341.242188 136.84375 333.632812 134.671875 328.074219 130.339844 C 322.515625 126.007812 319.738281 118.945312 319.738281 109.167969 L 319.738281 85.890625 Z M 319.746094 85.898438 "/><path style=" stroke:none;fill-rule:nonzero;fill:#fe6519;fill-opacity:1;" d="M 526.675781 115.21875 L 526.675781 57.667969 L 549.21875 57.667969 L 549.21875 117.597656 C 549.21875 120.285156 548.640625 122.515625 547.480469 124.28125 C 546.316406 126.054688 544.453125 127.738281 541.886719 129.324219 C 538.953125 131.277344 534.949219 133.019531 529.878906 134.546875 C 524.8125 136.078125 519.035156 136.835938 512.5625 136.835938 C 502.90625 136.835938 494.503906 135.21875 487.363281 131.980469 C 480.21875 128.746094 474.683594 123.734375 470.777344 116.949219 C 466.863281 110.164062 464.910156 101.582031 464.910156 91.203125 C 464.910156 80.824219 466.894531 71.839844 470.867188 64.992188 C 474.839844 58.148438 480.183594 53.105469 486.902344 49.871094 C 493.621094 46.632812 501.078125 45.015625 509.265625 45.015625 C 513.785156 45.015625 517.90625 45.5625 521.640625 46.664062 C 525.367188 47.769531 528.394531 49.050781 530.714844 50.515625 L 530.714844 69.753906 C 528.761719 67.925781 526.195312 66.339844 523.015625 64.992188 C 519.835938 63.648438 516.171875 62.972656 512.019531 62.972656 C 507.5 62.972656 503.40625 63.917969 499.746094 65.816406 C 496.074219 67.710938 493.207031 70.761719 491.128906 74.980469 C 489.054688 79.195312 488.015625 84.664062 488.015625 91.382812 C 488.015625 100.914062 490.214844 107.878906 494.613281 112.273438 C 499.007812 116.671875 504.933594 118.871094 512.390625 118.871094 C 515.691406 118.871094 518.496094 118.503906 520.816406 117.765625 C 523.136719 117.03125 525.089844 116.183594 526.683594 115.199219 Z M 549.21875 62.253906 L 526.675781 62.433594 L 526.675781 15.148438 C 527.527344 14.902344 528.90625 14.601562 530.804688 14.230469 C 532.699219 13.863281 534.679688 13.683594 536.761719 13.683594 C 541.160156 13.683594 544.339844 14.453125 546.292969 15.972656 C 548.246094 17.5 549.226562 20.222656 549.226562 24.128906 L 549.226562 62.253906 Z M 549.21875 62.253906 "/><path style=" stroke:none;fill-rule:nonzero;fill:#fe6519;fill-opacity:1;" d="M 556.917969 121.085938 C 556.917969 117.742188 557.964844 114.921875 560.058594 112.617188 C 562.148438 110.320312 565.019531 109.167969 568.679688 109.167969 C 572.34375 109.167969 575.210938 110.320312 577.304688 112.617188 C 579.398438 114.914062 580.441406 117.742188 580.441406 121.085938 C 580.441406 124.429688 579.398438 127.257812 577.304688 129.554688 C 575.210938 131.851562 572.34375 133.003906 568.679688 133.003906 C 565.019531 133.003906 562.148438 131.851562 560.058594 129.554688 C 557.964844 127.257812 556.917969 124.4375 556.917969 121.085938 Z M 556.917969 121.085938 "/><path style=" stroke:none;fill-rule:nonzero;fill:#fe6519;fill-opacity:1;" d="M 458.453125 91.210938 C 458.453125 90.125 458.476562 89.046875 458.515625 87.984375 C 457.40625 89.019531 456.488281 90.074219 455.820312 91.039062 C 454.023438 93.640625 452.65625 97.285156 449.796875 100.960938 C 446.933594 104.640625 443.355469 107.871094 439.046875 110.65625 C 432.6875 114.785156 426.4375 116.648438 420.289062 116.273438 C 415.375 115.960938 410.773438 113.875 406.492188 110.003906 L 445.375 75.96875 C 447.84375 73.933594 449.363281 71.742188 449.949219 69.394531 C 450.539062 67.050781 449.910156 64.433594 448.039062 61.566406 C 443.984375 55.3125 438.933594 50.726562 432.882812 47.808594 C 426.84375 44.890625 420.394531 43.714844 413.5625 44.285156 C 406.730469 44.859375 399.921875 47.34375 393.152344 51.734375 C 388.339844 54.863281 384.234375 58.648438 380.867188 63.09375 C 377.484375 67.539062 375.144531 72.410156 373.847656 77.691406 C 372.539062 82.980469 372.449219 88.621094 373.550781 94.59375 C 374.664062 100.578125 377.246094 106.691406 381.300781 112.945312 C 386.957031 121.65625 393.390625 127.820312 400.613281 131.433594 C 407.832031 135.054688 415.449219 136.347656 423.445312 135.308594 C 431.4375 134.277344 439.382812 131.195312 447.277344 126.070312 C 452.394531 122.746094 456.628906 119.269531 459.964844 115.667969 C 460.691406 114.875 461.363281 114.097656 461.984375 113.320312 C 459.621094 106.929688 458.433594 99.53125 458.433594 91.226562 Z M 396.765625 97.5625 C 393.160156 91.292969 391.878906 85.425781 392.914062 79.957031 C 394.042969 74.054688 397.214844 69.414062 402.445312 66.019531 C 407.570312 62.695312 412.394531 61.605469 416.921875 62.742188 C 421.449219 63.886719 425.128906 66.304688 427.964844 70 Z M 396.765625 97.5625 "/><path style=" stroke:none;fill-rule:nonzero;fill:#000000;fill-opacity:1;" d="M 323.964844 173.210938 L 319.746094 173.210938 L 319.746094 157.222656 C 319.917969 157.15625 320.179688 157.074219 320.546875 156.992188 C 320.90625 156.910156 321.289062 156.863281 321.707031 156.863281 C 322.460938 156.863281 323.023438 157.007812 323.40625 157.296875 C 323.785156 157.589844 323.972656 158.070312 323.972656 158.757812 L 323.972656 173.199219 Z M 319.746094 170.121094 L 323.964844 170.121094 L 323.964844 187.960938 L 322.007812 188.371094 C 321.355469 188.371094 320.816406 188.160156 320.390625 187.726562 C 319.964844 187.300781 319.746094 186.761719 319.746094 186.105469 Z M 322.007812 188.371094 L 322.007812 184.773438 L 338.714844 184.773438 C 338.886719 184.914062 339.027344 185.132812 339.125 185.445312 C 339.222656 185.753906 339.28125 186.097656 339.28125 186.476562 C 339.28125 187.054688 339.125 187.519531 338.816406 187.863281 C 338.503906 188.207031 338.09375 188.378906 337.582031 188.378906 L 322 188.378906 Z M 322.007812 188.371094 "/><path style=" stroke:none;fill-rule:nonzero;fill:#000000;fill-opacity:1;" d="M 343.1875 179.117188 L 342.984375 175.882812 L 358.511719 173.773438 C 358.375 171.894531 357.71875 170.339844 356.558594 169.121094 C 355.390625 167.90625 353.78125 167.300781 351.730469 167.300781 C 349.675781 167.300781 347.847656 168.058594 346.457031 169.589844 C 345.066406 171.117188 344.371094 173.300781 344.371094 176.144531 L 344.371094 177.269531 C 344.609375 180.019531 345.507812 182.09375 347.070312 183.515625 C 348.632812 184.9375 350.765625 185.648438 353.46875 185.648438 C 354.910156 185.648438 356.207031 185.414062 357.375 184.929688 C 358.546875 184.449219 359.46875 183.933594 360.15625 183.386719 C 360.53125 183.621094 360.835938 183.910156 361.054688 184.234375 C 361.277344 184.5625 361.390625 184.929688 361.390625 185.339844 C 361.390625 185.992188 361.023438 186.597656 360.285156 187.160156 C 359.550781 187.726562 358.570312 188.183594 357.351562 188.527344 C 356.132812 188.871094 354.769531 189.042969 353.265625 189.042969 C 350.625 189.042969 348.335938 188.558594 346.398438 187.601562 C 344.460938 186.644531 342.976562 185.207031 341.929688 183.3125 C 340.882812 181.40625 340.359375 179.085938 340.359375 176.347656 C 340.359375 174.394531 340.644531 172.652344 341.210938 171.132812 C 341.773438 169.605469 342.566406 168.3125 343.570312 167.25 C 344.585938 166.1875 345.785156 165.371094 347.191406 164.804688 C 348.597656 164.242188 350.125 163.957031 351.769531 163.957031 C 353.863281 163.957031 355.703125 164.40625 357.296875 165.296875 C 358.890625 166.1875 360.140625 167.429688 361.046875 169.023438 C 361.953125 170.617188 362.410156 172.441406 362.410156 174.5 C 362.410156 175.253906 362.238281 175.792969 361.898438 176.117188 C 361.554688 176.445312 361.070312 176.640625 360.457031 176.707031 L 343.179688 179.125 Z M 343.1875 179.117188 "/><path style=" stroke:none;fill-rule:nonzero;fill:#000000;fill-opacity:1;" d="M 374.296875 189.089844 C 371.074219 189.089844 368.582031 188.453125 366.816406 187.1875 C 365.050781 185.917969 364.167969 184.089844 364.167969 181.683594 C 364.167969 179.460938 364.914062 177.753906 366.410156 176.570312 C 367.90625 175.382812 369.964844 174.671875 372.605469 174.433594 L 379.902344 173.714844 L 379.902344 172.277344 C 379.902344 170.5625 379.386719 169.308594 378.359375 168.527344 C 377.328125 167.742188 375.9375 167.339844 374.191406 167.339844 C 372.785156 167.339844 371.433594 167.542969 370.152344 167.953125 C 368.867188 168.363281 367.726562 168.828125 366.734375 169.34375 C 366.457031 169.105469 366.210938 168.820312 365.992188 168.492188 C 365.769531 168.164062 365.65625 167.832031 365.65625 167.488281 C 365.65625 166.597656 366.15625 165.910156 367.144531 165.429688 C 368.066406 164.945312 369.140625 164.578125 370.355469 164.324219 C 371.574219 164.070312 372.867188 163.941406 374.238281 163.941406 C 377.222656 163.941406 379.585938 164.609375 381.332031 165.941406 C 383.082031 167.285156 383.957031 169.390625 383.957031 172.269531 L 383.957031 184.457031 C 383.957031 185.207031 383.808594 185.789062 383.523438 186.179688 C 383.230469 186.574219 382.796875 186.941406 382.214844 187.285156 C 381.390625 187.734375 380.296875 188.140625 378.921875 188.519531 C 377.550781 188.894531 376.003906 189.082031 374.296875 189.082031 Z M 374.296875 185.699219 C 375.734375 185.699219 376.929688 185.550781 377.867188 185.257812 C 378.808594 184.972656 379.488281 184.683594 379.894531 184.40625 L 379.894531 176.953125 L 373.519531 177.621094 C 371.738281 177.761719 370.414062 178.152344 369.5625 178.808594 C 368.707031 179.460938 368.28125 180.402344 368.28125 181.636719 C 368.28125 182.871094 368.789062 183.898438 369.800781 184.621094 C 370.8125 185.339844 372.308594 185.699219 374.296875 185.699219 Z M 374.296875 185.699219 "/><path style=" stroke:none;fill-rule:nonzero;fill:#000000;fill-opacity:1;" d="M 393.003906 169.039062 L 393.003906 177.164062 L 388.894531 177.164062 L 388.894531 169.351562 C 388.894531 168.566406 389.042969 167.9375 389.328125 167.472656 C 389.621094 167.003906 390.105469 166.554688 390.789062 166.105469 C 391.679688 165.527344 392.898438 165.019531 394.445312 164.585938 C 395.988281 164.160156 397.695312 163.941406 399.585938 163.941406 C 402.324219 163.941406 403.695312 164.625 403.695312 166 C 403.695312 166.34375 403.648438 166.660156 403.542969 166.949219 C 403.433594 167.242188 403.304688 167.488281 403.132812 167.691406 C 402.789062 167.625 402.339844 167.554688 401.792969 167.488281 C 401.246094 167.421875 400.695312 167.382812 400.148438 167.382812 C 398.570312 167.382812 397.183594 167.542969 395.980469 167.871094 C 394.777344 168.199219 393.789062 168.582031 392.996094 169.03125 Z M 388.894531 174.804688 L 393.003906 175.414062 L 393.003906 188.265625 C 392.832031 188.332031 392.582031 188.410156 392.238281 188.492188 C 391.894531 188.574219 391.519531 188.625 391.109375 188.625 C 390.390625 188.625 389.84375 188.476562 389.464844 188.191406 C 389.089844 187.90625 388.902344 187.429688 388.902344 186.777344 L 388.902344 174.792969 Z M 388.894531 174.804688 "/><path style=" stroke:none;fill-rule:nonzero;fill:#000000;fill-opacity:1;" d="M 426.273438 172.695312 L 426.273438 177.941406 L 422.160156 177.941406 L 422.160156 172.90625 C 422.160156 170.984375 421.621094 169.578125 420.542969 168.6875 C 419.464844 167.796875 418.015625 167.355469 416.203125 167.355469 C 414.828125 167.355469 413.609375 167.527344 412.546875 167.871094 C 411.484375 168.214844 410.578125 168.605469 409.828125 169.058594 L 409.828125 177.949219 L 405.714844 177.949219 L 405.714844 169.261719 C 405.714844 168.542969 405.863281 167.953125 406.148438 167.488281 C 406.441406 167.023438 406.949219 166.570312 407.667969 166.121094 C 408.558594 165.609375 409.746094 165.117188 411.214844 164.660156 C 412.6875 164.195312 414.355469 163.964844 416.203125 163.964844 C 419.316406 163.964844 421.777344 164.675781 423.582031 166.097656 C 425.382812 167.519531 426.28125 169.71875 426.28125 172.703125 Z M 405.707031 175.105469 L 409.820312 175.105469 L 409.820312 188.265625 C 409.648438 188.332031 409.394531 188.410156 409.050781 188.492188 C 408.707031 188.574219 408.332031 188.625 407.921875 188.625 C 407.203125 188.625 406.65625 188.476562 406.28125 188.191406 C 405.902344 187.90625 405.714844 187.429688 405.714844 186.777344 L 405.714844 175.105469 Z M 422.160156 175.105469 L 426.273438 175.105469 L 426.273438 188.265625 C 426.101562 188.332031 425.839844 188.410156 425.472656 188.492188 C 425.113281 188.574219 424.742188 188.625 424.367188 188.625 C 423.617188 188.625 423.058594 188.476562 422.699219 188.191406 C 422.339844 187.898438 422.160156 187.429688 422.160156 186.777344 Z M 422.160156 175.105469 "/><path style=" stroke:none;fill-rule:nonzero;fill:#000000;fill-opacity:1;" d="M 431.054688 157.117188 C 431.054688 156.394531 431.308594 155.792969 431.820312 155.292969 C 432.335938 154.792969 432.964844 154.546875 433.726562 154.546875 C 434.488281 154.546875 435.148438 154.792969 435.632812 155.292969 C 436.113281 155.792969 436.351562 156.394531 436.351562 157.117188 C 436.351562 157.835938 436.113281 158.449219 435.632812 158.9375 C 435.148438 159.4375 434.519531 159.683594 433.726562 159.683594 C 432.933594 159.683594 432.335938 159.4375 431.820312 158.9375 C 431.308594 158.4375 431.054688 157.835938 431.054688 157.117188 Z M 435.785156 176.804688 L 431.675781 176.804688 L 431.675781 164.726562 C 431.847656 164.660156 432.109375 164.578125 432.476562 164.496094 C 432.835938 164.414062 433.21875 164.363281 433.636719 164.363281 C 434.355469 164.363281 434.894531 164.511719 435.253906 164.796875 C 435.613281 165.09375 435.792969 165.574219 435.792969 166.261719 L 435.792969 176.804688 Z M 431.667969 174.804688 L 435.777344 174.804688 L 435.777344 188.273438 C 435.605469 188.339844 435.34375 188.421875 435.011719 188.5 C 434.667969 188.582031 434.289062 188.632812 433.882812 188.632812 C 433.164062 188.632812 432.613281 188.484375 432.238281 188.199219 C 431.863281 187.90625 431.675781 187.4375 431.675781 186.785156 L 431.675781 174.804688 Z M 431.667969 174.804688 "/><path style=" stroke:none;fill-rule:nonzero;fill:#000000;fill-opacity:1;" d="M 461.792969 172.695312 L 461.792969 177.941406 L 457.683594 177.941406 L 457.683594 172.90625 C 457.683594 170.984375 457.144531 169.578125 456.066406 168.6875 C 454.984375 167.796875 453.539062 167.355469 451.726562 167.355469 C 450.351562 167.355469 449.132812 167.527344 448.070312 167.871094 C 447.007812 168.214844 446.101562 168.605469 445.347656 169.058594 L 445.347656 177.949219 L 441.238281 177.949219 L 441.238281 169.261719 C 441.238281 168.542969 441.386719 167.953125 441.671875 167.488281 C 441.964844 167.023438 442.472656 166.570312 443.191406 166.121094 C 444.082031 165.609375 445.269531 165.117188 446.738281 164.660156 C 448.210938 164.195312 449.878906 163.964844 451.726562 163.964844 C 454.839844 163.964844 457.300781 164.675781 459.105469 166.097656 C 460.902344 167.519531 461.804688 169.71875 461.804688 172.703125 Z M 441.230469 175.105469 L 445.339844 175.105469 L 445.339844 188.265625 C 445.167969 188.332031 444.917969 188.410156 444.574219 188.492188 C 444.230469 188.574219 443.855469 188.625 443.445312 188.625 C 442.726562 188.625 442.179688 188.476562 441.800781 188.191406 C 441.425781 187.90625 441.238281 187.429688 441.238281 186.777344 L 441.238281 175.105469 Z M 457.683594 175.105469 L 461.792969 175.105469 L 461.792969 188.265625 C 461.625 188.332031 461.363281 188.410156 460.992188 188.492188 C 460.632812 188.574219 460.265625 188.625 459.890625 188.625 C 459.136719 188.625 458.582031 188.476562 458.222656 188.191406 C 457.863281 187.898438 457.683594 187.429688 457.683594 186.777344 Z M 457.683594 175.105469 "/><path style=" stroke:none;fill-rule:nonzero;fill:#000000;fill-opacity:1;" d="M 476.808594 187.652344 C 474.824219 187.652344 472.984375 187.269531 471.308594 186.492188 C 469.625 185.722656 468.277344 184.464844 467.246094 182.714844 C 466.214844 180.964844 465.703125 178.652344 465.703125 175.777344 C 465.703125 173.167969 466.207031 170.992188 467.222656 169.246094 C 468.234375 167.496094 469.632812 166.179688 471.414062 165.289062 C 473.195312 164.398438 475.242188 163.949219 477.535156 163.949219 C 479.113281 163.949219 480.5625 164.144531 481.886719 164.535156 C 483.203125 164.929688 484.3125 165.417969 485.203125 166 C 485.71875 166.34375 486.136719 166.726562 486.460938 167.160156 C 486.789062 167.59375 486.953125 168.109375 486.953125 168.730469 L 486.953125 184.621094 L 482.839844 184.621094 L 482.839844 168.785156 C 482.261719 168.410156 481.535156 168.074219 480.660156 167.78125 C 479.785156 167.488281 478.746094 167.347656 477.546875 167.347656 C 475.25 167.347656 473.402344 168.050781 471.996094 169.457031 C 470.589844 170.863281 469.886719 172.957031 469.886719 175.726562 C 469.886719 178.808594 470.597656 181.007812 472.019531 182.304688 C 473.441406 183.605469 475.199219 184.257812 477.292969 184.257812 C 478.796875 184.257812 480.015625 184.007812 480.945312 183.492188 C 481.867188 182.976562 482.605469 182.414062 483.152344 181.792969 L 483.355469 185.445312 C 482.839844 185.992188 482.023438 186.5 480.914062 186.964844 C 479.800781 187.429688 478.4375 187.660156 476.824219 187.660156 Z M 482.824219 189.140625 L 482.824219 183.746094 L 486.9375 183.746094 L 486.9375 189.402344 C 486.9375 191.664062 486.445312 193.480469 485.472656 194.851562 C 484.492188 196.226562 483.160156 197.214844 481.460938 197.835938 C 479.761719 198.449219 477.855469 198.761719 475.730469 198.761719 C 474.015625 198.761719 472.542969 198.570312 471.308594 198.195312 C 470.074219 197.820312 469.234375 197.507812 468.792969 197.273438 C 467.761719 196.691406 467.246094 195.957031 467.246094 195.066406 C 467.246094 194.582031 467.359375 194.183594 467.582031 193.855469 C 467.800781 193.527344 468.089844 193.285156 468.433594 193.113281 C 469.152344 193.660156 470.171875 194.167969 471.488281 194.632812 C 472.804688 195.097656 474.21875 195.328125 475.730469 195.328125 C 478.027344 195.328125 479.785156 194.828125 481.003906 193.839844 C 482.21875 192.84375 482.824219 191.289062 482.824219 189.15625 Z M 482.824219 189.140625 "/><path style=" stroke:none;fill-rule:nonzero;fill:#000000;fill-opacity:1;" d="M 504.625 173.210938 L 500.40625 173.210938 L 500.40625 157.222656 C 500.578125 157.15625 500.839844 157.074219 501.207031 156.992188 C 501.566406 156.910156 501.953125 156.863281 502.367188 156.863281 C 503.121094 156.863281 503.683594 157.007812 504.070312 157.296875 C 504.445312 157.589844 504.632812 158.070312 504.632812 158.757812 L 504.632812 173.199219 Z M 500.40625 169.761719 L 504.625 169.761719 L 504.625 188.265625 C 504.421875 188.332031 504.140625 188.410156 503.800781 188.492188 C 503.457031 188.574219 503.078125 188.625 502.671875 188.625 C 501.917969 188.625 501.355469 188.46875 500.972656 188.160156 C 500.585938 187.847656 500.40625 187.375 500.40625 186.71875 L 500.40625 169.75 Z M 522.875 174.289062 L 502.925781 174.289062 L 502.925781 170.789062 L 522.875 170.789062 Z M 524.878906 173.210938 L 520.660156 173.210938 L 520.660156 157.222656 C 520.832031 157.15625 521.09375 157.074219 521.460938 156.992188 C 521.820312 156.910156 522.207031 156.863281 522.621094 156.863281 C 523.375 156.863281 523.9375 157.007812 524.324219 157.296875 C 524.699219 157.589844 524.886719 158.070312 524.886719 158.757812 L 524.886719 173.199219 Z M 520.667969 169.761719 L 524.886719 169.761719 L 524.886719 188.265625 C 524.683594 188.332031 524.40625 188.410156 524.0625 188.492188 C 523.71875 188.574219 523.34375 188.625 522.933594 188.625 C 522.179688 188.625 521.617188 188.46875 521.234375 188.160156 C 520.847656 187.847656 520.667969 187.375 520.667969 186.71875 L 520.667969 169.75 Z M 520.667969 169.761719 "/><path style=" stroke:none;fill-rule:nonzero;fill:#000000;fill-opacity:1;" d="M 534.859375 177.679688 L 530.746094 177.679688 L 530.746094 164.726562 C 530.917969 164.660156 531.179688 164.578125 531.546875 164.496094 C 531.90625 164.414062 532.292969 164.367188 532.707031 164.367188 C 533.429688 164.367188 533.96875 164.511719 534.328125 164.796875 C 534.6875 165.09375 534.867188 165.574219 534.867188 166.261719 L 534.867188 177.671875 Z M 530.738281 179.683594 L 530.738281 175.007812 L 534.851562 175.007812 L 534.851562 179.476562 C 534.851562 181.667969 535.429688 183.246094 536.601562 184.210938 C 537.769531 185.167969 539.378906 185.648438 541.429688 185.648438 C 542.804688 185.648438 543.964844 185.503906 544.929688 185.214844 C 545.886719 184.921875 546.644531 184.628906 547.191406 184.316406 L 547.191406 175.007812 L 551.304688 175.007812 L 551.304688 184.160156 C 551.304688 184.882812 551.207031 185.453125 551.019531 185.886719 C 550.828125 186.320312 550.371094 186.738281 549.652344 187.144531 C 548.902344 187.59375 547.820312 188.019531 546.417969 188.429688 C 545.011719 188.835938 543.335938 189.042969 541.382812 189.042969 C 539.117188 189.042969 537.1875 188.707031 535.59375 188.035156 C 534 187.367188 532.789062 186.335938 531.972656 184.953125 C 531.148438 183.566406 530.738281 181.808594 530.738281 179.683594 Z M 551.3125 177.679688 L 547.199219 177.679688 L 547.199219 164.726562 C 547.371094 164.660156 547.632812 164.578125 547.992188 164.496094 C 548.351562 164.414062 548.722656 164.367188 549.097656 164.367188 C 549.847656 164.367188 550.40625 164.511719 550.765625 164.796875 C 551.125 165.09375 551.304688 165.574219 551.304688 166.261719 L 551.304688 177.671875 Z M 551.3125 177.679688 "/><path style=" stroke:none;fill-rule:nonzero;fill:#000000;fill-opacity:1;" d="M 560.664062 167.757812 L 556.550781 167.757812 L 556.550781 155.054688 C 556.722656 154.988281 556.984375 154.910156 557.351562 154.828125 C 557.71875 154.746094 558.097656 154.695312 558.511719 154.695312 C 559.230469 154.695312 559.773438 154.84375 560.132812 155.136719 C 560.492188 155.429688 560.671875 155.898438 560.671875 156.550781 L 560.671875 167.757812 Z M 567.039062 163.949219 C 569.164062 163.949219 571.074219 164.40625 572.769531 165.3125 C 574.46875 166.21875 575.800781 167.601562 576.78125 169.449219 C 577.761719 171.296875 578.242188 173.652344 578.242188 176.496094 C 578.242188 179.339844 577.738281 181.742188 576.722656 183.589844 C 575.710938 185.4375 574.3125 186.808594 572.53125 187.699219 C 570.75 188.59375 568.671875 189.042969 566.3125 189.042969 C 564.625 189.042969 563.113281 188.835938 561.757812 188.429688 C 560.402344 188.019531 559.296875 187.570312 558.4375 187.085938 C 557.71875 186.605469 557.222656 186.164062 556.953125 185.753906 C 556.675781 185.347656 556.542969 184.773438 556.542969 184.054688 L 556.542969 166.933594 L 560.65625 166.933594 L 560.65625 184.054688 C 561.167969 184.429688 561.921875 184.792969 562.917969 185.132812 C 563.914062 185.476562 565.042969 185.648438 566.3125 185.648438 C 568.640625 185.648438 570.519531 184.914062 571.941406 183.441406 C 573.363281 181.972656 574.074219 179.65625 574.074219 176.503906 C 574.074219 173.347656 573.355469 170.992188 571.917969 169.539062 C 570.480469 168.085938 568.640625 167.355469 566.417969 167.355469 C 565.042969 167.355469 563.824219 167.617188 562.761719 168.148438 C 561.699219 168.679688 560.828125 169.292969 560.140625 169.972656 L 559.371094 166.628906 C 560.125 166.050781 561.136719 165.453125 562.402344 164.855469 C 563.671875 164.257812 565.214844 163.957031 567.03125 163.957031 Z M 567.039062 163.949219 "/></g></svg>